<?xml version="1.0" encoding="utf-8"?>
<!-- Generator: Adobe Illustrator 27.5.0, SVG Export Plug-In . SVG Version: 6.00 Build 0)  -->
<svg version="1.1" xmlns="http://www.w3.org/2000/svg" xmlns:xlink="http://www.w3.org/1999/xlink" x="0px" y="0px"
	 viewBox="0 0 750 500" style="enable-background:new 0 0 750 500;" xml:space="preserve">
<g id="BACKGROUND">
</g>
<g id="OBJECTS">
	<g>
		<g>
			<rect style="fill:#EEDECF;" width="750" height="500"/>
			<g>
				<path style="fill:#DBB3A7;" d="M748.016,43.466c-70.07-12.29-142.704-4.79-213.105,2.487
					c-58.664,6.065-119.325,12.336-178.478,7.259c-6.279-0.539-14.078-2.961-17.348-7.158c-1.445-1.854-1.906-3.911-1.373-6.116
					c0.421-1.742,1.52-3.311,2.582-4.828c1.216-1.736,2.474-3.532,2.756-5.623c0.273-2.026-0.304-3.875-1.716-5.497
					c-3.197-3.671-9.938-5.403-15.18-5.801c-77.952-5.909-155.954,10.196-231.386,25.771C63.843,50.346,32.294,56.848,0.53,61.901
					v0.504c31.805-5.058,63.391-11.567,94.354-17.96c75.394-15.566,153.358-31.663,231.228-25.761
					c5.133,0.389,11.718,2.07,14.809,5.619c1.317,1.512,1.856,3.235,1.601,5.121c-0.268,1.977-1.436,3.646-2.674,5.413
					c-1.088,1.554-2.213,3.161-2.656,4.99c-0.569,2.35-0.077,4.543,1.462,6.518c3.599,4.618,11.801,6.851,17.73,7.361
					c59.209,5.08,119.895-1.193,178.585-7.26c70.395-7.277,143.022-14.777,213.047-2.476V43.466z"/>
				<path style="fill:#DBB3A7;" d="M350.489,102.311c-13.381-14.675-39.13-15.154-57.931-15.503l-1.343-0.025
					c-25.166-0.479-49.718,1.37-76.903,3.651c-28.468,2.388-57.208,5.895-85.423,10.422c-43.299,6.949-86.316,16.449-128.36,28.317
					v0.52c42.072-11.882,85.12-21.392,128.451-28.346c28.2-4.526,56.926-8.031,85.38-10.418c27.169-2.279,51.701-4.125,76.844-3.649
					l1.343,0.025c18.7,0.348,44.31,0.824,57.536,15.328c2.206,2.42,4.531,6.189,3.083,10.402c-0.821,2.388-2.538,4.648-5.406,7.111
					c-8.1,6.961-18.715,10.639-28.981,14.196c-1.286,0.445-2.566,0.889-3.835,1.337c-12.48,4.405-25.984,8.503-40.137,12.18
					c-52.185,13.561-109.864,20.26-171.465,19.908c-0.757-0.004-1.777,0.01-3.003,0.027c-9.808,0.138-32.781,0.461-37.512-7.09
					c-1.399-2.232-1.059-5.042,1.011-8.352c4.191-6.702,12.319-11.359,16.79-13.538c48.187-23.484,102.046-37.151,155.757-39.525
					c2.148-0.095,4.338-0.223,6.658-0.358c9.986-0.583,21.303-1.245,30.645,0.918c5.013,1.161,8.389,3.879,9.507,7.653
					c1.229,4.149-0.474,8.885-4.554,12.668c-3.852,3.572-8.938,5.839-13.407,7.587c-33.061,12.931-69.382,20.17-114.305,22.782
					c-6.371,0.372-14.268-0.364-15.687-5.969c-1.285-5.075,4.467-9.357,8.011-11.458c12.29-7.285,26.36-12.417,40.689-14.84
					l-0.095-0.489c-14.396,2.434-28.532,7.59-40.88,14.91c-3.663,2.172-9.604,6.617-8.243,11.992
					c1.191,4.704,6.81,6.899,16.238,6.351c44.984-2.615,81.361-9.867,114.478-22.819c4.516-1.766,9.66-4.061,13.577-7.693
					c4.219-3.912,5.973-8.829,4.692-13.153c-1.171-3.955-4.685-6.797-9.893-8.004c-9.422-2.182-20.784-1.518-30.807-0.932
					c-2.317,0.135-4.505,0.264-6.649,0.358c-53.788,2.377-107.725,16.064-155.979,39.58c-4.522,2.204-12.746,6.918-17.004,13.728
					c-2.174,3.476-2.514,6.455-1.011,8.854c4.137,6.602,21.382,7.383,32.587,7.383c2.034,0,3.871-0.026,5.393-0.047
					c1.221-0.017,2.238-0.031,2.993-0.027c61.625,0.352,119.378-6.354,171.611-19.927c14.169-3.681,27.688-7.784,40.183-12.194
					c1.268-0.448,2.547-0.891,3.832-1.336c10.314-3.574,20.979-7.269,29.156-14.296c2.937-2.524,4.702-4.852,5.552-7.325
					C355.197,108.756,352.783,104.827,350.489,102.311z"/>
				<path style="fill:#DBB3A7;" d="M486.879,331.127c12.296-5.181,26.372-8.831,40.709-10.555l-0.069-0.493
					c-14.388,1.73-28.517,5.393-40.859,10.594c-3.685,1.553-9.66,4.74-8.271,8.64c1.216,3.413,6.67,4.944,16.228,4.549
					c44.977-1.859,81.347-7.013,114.456-16.218c4.514-1.255,9.655-2.886,13.569-5.466c3.874-2.554,5.691-5.708,4.984-8.652
					c-0.773-3.219-4.479-5.601-10.17-6.538c-9.412-1.549-20.766-1.077-30.787-0.661c-2.277,0.095-4.503,0.187-6.648,0.254
					c-53.777,1.689-107.705,11.418-155.951,28.132c-4.523,1.567-12.748,4.92-17.011,9.766c-1.87,2.125-2.403,4.01-1.586,5.599
					c2.808,5.461,21.186,6.084,33.074,6.084c2.049,0,3.906-0.018,5.456-0.034c1.223-0.012,2.238-0.022,2.995-0.019
					c61.651,0.256,119.365-4.516,171.591-14.164c14.162-2.615,27.68-5.531,40.178-8.667c1.267-0.318,2.546-0.633,3.83-0.949
					c10.311-2.54,20.974-5.166,29.149-10.16c2.946-1.799,4.718-3.463,5.576-5.237c1.555-3.215-0.885-6.046-3.206-7.856
					c-13.376-10.429-39.113-10.769-57.905-11.017l-1.338-0.018c-25.172-0.339-49.715,0.974-76.894,2.595
					c-28.474,1.698-57.212,4.191-85.416,7.409c-56.577,6.454-112.68,15.995-166.752,28.359l0.127,0.483
					c54.051-12.359,110.134-21.897,166.689-28.348c28.194-3.217,56.922-5.708,85.385-7.406c27.168-1.62,51.698-2.932,76.852-2.594
					l1.339,0.018c18.712,0.247,44.34,0.585,57.571,10.901c2.178,1.699,4.478,4.339,3.062,7.269c-0.815,1.684-2.525,3.28-5.382,5.026
					c-8.103,4.95-18.723,7.566-28.993,10.095c-1.285,0.317-2.565,0.632-3.833,0.95c-12.487,3.133-25.993,6.046-40.144,8.66
					C566.293,351.1,508.621,355.874,447,355.613c-0.754-0.005-1.775,0.007-3.002,0.019c-9.545,0.097-34.898,0.349-38.043-5.768
					c-0.72-1.4-0.209-3.106,1.517-5.069c4.184-4.757,12.312-8.066,16.784-9.616c48.193-16.696,102.062-26.414,155.785-28.101
					c2.146-0.067,4.374-0.16,6.653-0.255c9.991-0.416,21.317-0.886,30.67,0.654c5.468,0.9,9.019,3.144,9.742,6.158
					c0.658,2.739-1.082,5.704-4.772,8.137c-3.851,2.539-8.941,4.152-13.413,5.396c-33.066,9.194-69.395,14.341-114.327,16.198
					c-9.149,0.383-14.583-1.077-15.699-4.209C477.638,335.627,483.357,332.611,486.879,331.127z"/>
				<path style="fill:#DBB3A7;" d="M747.472,204.703c-48.84,4.682-97.661,14.743-145.025,24.522
					c-75.393,15.566-153.348,31.662-231.228,25.761c-5.133-0.389-11.719-2.07-14.809-5.618c-1.317-1.512-1.855-3.235-1.6-5.121
					c0.267-1.977,1.436-3.646,2.673-5.413c1.088-1.554,2.213-3.161,2.656-4.991c0.312-1.287,0.293-2.525-0.029-3.708
					c16.01-6.616,31.745-13.747,47.14-21.368c15.607-7.726,31.177-16.107,46.233-24.213c24.405-13.139,49.642-26.725,75.676-37.857
					c26.517-11.338,50.928-18.806,74.627-22.832l0.2-0.034c40.602-6.897,64.584-6.15,67.528,2.108
					c0.734,2.06,2.966,8.328-12.61,16.307c-14.273,7.311-30.655,11.105-46.497,14.774l-0.538,0.125
					c-2.924,0.677-6.147,1.253-9.56,1.863c-13.745,2.455-29.324,5.238-35.732,16.299c-1.419,2.45-1.666,5.148-0.661,7.216
					c0.81,1.669,2.482,3.076,4.709,3.962c11.811,4.693,29.145,2.508,43.075,0.752c3.37-0.425,6.554-0.827,9.471-1.112
					c18.538-1.813,36.751-4.702,54.133-8.585c24.541-5.484,48.026-13.083,70.17-22.672v-0.546
					c-22.178,9.622-45.706,17.24-70.295,22.735c-17.358,3.879-35.548,6.764-54.064,8.575c-2.925,0.286-6.112,0.688-9.487,1.113
					c-13.863,1.748-31.116,3.924-42.794-0.716c-2.103-0.837-3.678-2.154-4.433-3.709c-0.936-1.928-0.695-4.461,0.645-6.776
					c6.288-10.853,21.736-13.612,35.363-16.047c3.42-0.611,6.65-1.188,9.589-1.869l0.537-0.125
					c15.876-3.677,32.292-7.479,46.625-14.821c3.949-2.023,15.966-8.178,12.86-16.899c-3.081-8.646-26.64-9.489-68.13-2.441
					l-0.2,0.034c-23.743,4.033-48.195,11.514-74.754,22.87c-26.056,11.141-51.303,24.733-75.719,37.878
					c-15.052,8.103-30.617,16.483-46.216,24.205c-15.36,7.604-31.058,14.719-47.03,21.322c-0.282-0.803-0.712-1.579-1.293-2.324
					c-3.599-4.619-11.801-6.852-17.731-7.361c-59.21-5.08-119.897,1.193-178.585,7.26C108.998,232.74,54.353,238.378,0.53,235.43
					v0.499c53.854,2.947,108.513-2.692,161.889-8.211c58.662-6.064,119.322-12.335,178.478-7.259
					c6.279,0.538,14.078,2.961,17.348,7.158c0.557,0.715,0.964,1.461,1.228,2.233c-26.439,10.908-53.625,20.412-81.273,28.397
					c-44.529,12.86-90.456,21.844-136.507,26.702c-3.338,0.352-6.686,0.685-10.038,1.018c-21.591,2.146-43.917,4.365-64.254,12.047
					c-7.239,2.734-16.771,8.873-19.811,17.177c-1.479,4.038-1.048,7.713,1.28,10.922c4.308,5.938,14.443,9.039,22.038,9.406
					c7.88,0.384,15.678-0.995,23.223-2.326c3.997-0.705,8.13-1.434,12.22-1.892c12.251-1.368,31.309,1.865,33.607,16.391
					c1.889,11.935-11.849,16.71-20.207,18.495c-19.231,4.106-39.286,4.036-58.676,3.968c-3.698-0.014-7.524-0.027-11.272-0.01
					c-16.159,0.07-32.72,0.135-49.273-0.399v0.5c10.903,0.351,21.808,0.444,32.6,0.444c5.594,0,11.159-0.024,16.675-0.048
					c3.748-0.016,7.571-0.003,11.269,0.01c19.421,0.067,39.506,0.137,58.796-3.981c8.537-1.822,22.567-6.722,20.616-19.052
					c-2.354-14.878-21.743-18.207-34.199-16.812c-4.108,0.459-8.25,1.19-12.256,1.896c-7.514,1.326-15.281,2.694-23.096,2.318
					c-7.466-0.362-17.418-3.392-21.624-9.189c-2.229-3.073-2.639-6.6-1.217-10.483c2.982-8.145,12.372-14.182,19.506-16.877
					c20.269-7.655,42.557-9.871,64.111-12.013c3.353-0.333,6.703-0.666,10.042-1.018c46.084-4.861,92.044-13.851,136.605-26.721
					c27.641-7.983,54.821-17.485,81.255-28.387c0.281,1.085,0.289,2.219,0.004,3.397c-0.421,1.742-1.52,3.311-2.582,4.828
					c-1.216,1.736-2.473,3.532-2.756,5.623c-0.274,2.026,0.303,3.875,1.716,5.497c3.196,3.67,9.937,5.403,15.18,5.8
					c11.304,0.857,22.596,1.25,33.895,1.25c66.614,0,132.998-13.705,197.491-27.021c47.332-9.773,96.119-19.826,144.911-24.507
					V204.703z"/>
				<path style="fill:#DBB3A7;" d="M416.611,399.503c-5.336-7.607-14.255-13.698-25.116-17.152
					c-11.346-3.608-23.385-4.169-35.752-4.462c-46.234-1.093-87.983,1.12-127.629,6.772c-35.419,5.048-70.771,13.181-104.96,21.046
					L0.53,433.917v0.512l122.754-28.239c34.176-7.862,69.517-15.992,104.912-21.037c39.616-5.647,81.335-7.861,127.535-6.766
					c12.323,0.292,24.319,0.85,35.592,4.436c10.749,3.418,19.571,9.439,24.843,16.953c6.066,8.65,7.311,19.302,3.25,27.798
					c-3.063,6.408-10.179,15.63-36.493,21.709c-50.912,11.763-104.107,11.129-155.548,10.516c-15.943-0.19-32.429-0.387-48.49-2.479
					c-5.73-0.746-13.659-2.403-16.354-8.15c-2.327-4.963,0.541-10.599,4.191-13.736c3.939-3.386,9.208-5.148,14.713-6.799
					c41.677-12.496,84.956-20.219,128.637-22.953c12.894-0.807,23.671-0.986,34.36,0.763c7.81,1.279,16.972,5.382,17.089,12.736
					c0.144,9.083-13.256,12.676-19.024,13.799c-42.433,8.262-85.919,13.035-129.25,14.187l0.016,0.497
					c43.363-1.153,86.88-5.93,129.344-14.198c5.897-1.148,19.598-4.84,19.448-14.293c-0.122-7.658-9.52-11.906-17.53-13.218
					c-10.743-1.759-21.558-1.579-34.488-0.77c-43.724,2.738-87.047,10.468-128.765,22.977c-5.564,1.669-10.892,3.452-14.911,6.907
					c-3.784,3.252-6.75,9.114-4.318,14.3c2.802,5.976,10.912,7.681,16.769,8.444c16.095,2.096,32.597,2.293,48.556,2.483
					c11.521,0.137,23.13,0.276,34.782,0.276c40.408,0,81.333-1.664,120.902-10.806c12.71-2.937,30.36-8.412,36.851-21.989
					C424.037,419.126,422.776,408.293,416.611,399.503z"/>
				<path style="fill:#DBB3A7;" d="M747.472,395.532c-26.783,17.914-54.557,36.054-87.101,41.452
					c-10.842,1.798-23.568-0.28-25.891-9.093c-2.044-7.748,5.91-14.432,8.396-16.296c1.649-1.236,3.428-2.401,5.148-3.529
					c3.915-2.565,7.963-5.218,10.786-8.9c2.502-3.263,3.542-7.78,2.65-11.51c-0.641-2.681-2.199-4.736-4.504-5.941
					c-2.094-1.095-4.563-1.357-6.919-1.478c-18.963-0.972-39.126,5.384-59.931,18.887c-11.012,7.147-21.241,15.567-31.132,23.71
					c-5.92,4.873-12.042,9.912-18.266,14.625c-36.007,27.264-77.701,45.78-120.467,61.354h1.46
					c42.363-15.492,83.635-33.93,119.343-60.967c6.234-4.72,12.359-9.762,18.283-14.638c9.88-8.134,20.098-16.544,31.084-23.675
					c20.706-13.439,40.756-19.759,59.598-18.799c2.292,0.118,4.689,0.37,6.688,1.416c2.169,1.134,3.637,3.076,4.244,5.615
					c0.861,3.597-0.146,7.96-2.562,11.112c-2.771,3.613-6.781,6.241-10.66,8.783c-1.726,1.131-3.512,2.302-5.174,3.548
					c-6.802,5.1-10.01,11.381-8.581,16.802c2.406,9.124,15.427,11.304,26.503,9.464c32.535-5.396,60.272-23.452,87.007-41.33
					V395.532z"/>
			</g>
		</g>
		<g>
			<g>
				<polygon style="fill:#E2CDBC;" points="750,0 659.226,0 603.56,308.244 750,334.174 				"/>
				<polygon style="fill:#F9EFE8;" points="750,0 648.511,0 628.787,322.354 750,329.626 				"/>
				<g>
					<polygon style="fill:#FFFFFF;" points="750,0 667.114,0 619.727,300.452 750,320.598 					"/>
					<polygon style="fill:#F7E6DF;" points="750,0 690.406,0 687.553,18.087 750,27.744 					"/>
					<g>
						<polygon style="fill:#F7E6DF;" points="750,38.677 685.87,28.76 672.414,114.073 740.688,124.631 750,65.589 						"/>
						<g>
							<path style="fill:#4B284C;" d="M733.129,99.08c5.334-6.025,7.781-14.113,0.522-29.471
								c1.592-10.095-5.702-19.607-16.293-21.245l0,0c-10.591-1.638-20.467,5.218-22.059,15.314
								c-11.28,14.584-11.649,20.739-8.578,28.225L733.129,99.08z"/>
							<polygon style="fill:#FFB9A9;" points="715.807,120.783 721.386,85.414 702.119,82.435 696.541,117.804 							"/>
							<path style="fill:#FFFFFF;" d="M735.468,123.824c-0.155-6.417-0.583-12.901-0.583-12.901
								c-1.608-3.874-7.952-7.718-15.857-10.641c-6.788,3.097-13.776,2.224-19.254-2.977c-8.43,0.396-15.612,2.148-18.336,5.353
								c0,0-2.147,6.086-4.058,12.184L735.468,123.824z"/>
							<path style="fill:#F28E81;" d="M719.702,96.092c-13.93,0.943-18.553-7.505-18.553-7.505l0.97-6.153l19.267,2.98
								L719.702,96.092z"/>
							<polygon style="fill:#FFFFFF;" points="700.398,92.566 697.047,97.455 704.205,106.5 708.932,101.906 							"/>
							<polygon style="fill:#FFFFFF;" points="719.934,95.587 721.621,101.256 712.018,107.708 708.932,101.906 							"/>
							<polygon style="fill:#FFE3DE;" points="707.896,119.56 710.241,104.697 708.932,101.905 706.827,104.159 704.481,119.032 
															"/>
							<polygon style="fill:#EDCBC3;" points="711.927,108.072 708.867,102.319 704.18,106.874 696.849,97.61 697.245,97.301 
								704.23,106.126 708.997,101.492 712.11,107.344 721.478,101.049 721.762,101.463 							"/>
							<path style="fill:#FFFFFF;" d="M692.56,117.188l1.301-18.674c-7.595,0.463-12.603,2.292-15.531,8.502l-4.453,7.283
								L692.56,117.188z"/>
							<path style="fill:#FFFFFF;" d="M738.762,124.333l-1.998-8.28c-0.876-6.799-5.082-10.052-12.173-12.787l-4.512,18.178
								L738.762,124.333z"/>
							<g>
								<path style="fill:#FFB9A9;" d="M710.459,92.161L710.459,92.161c-8.08-1.25-13.659-8.818-12.397-16.82l1.516-9.608
									c1.262-8.001,8.906-13.525,16.986-12.276l0,0c8.08,1.25,13.659,8.818,12.397,16.82l-1.516,9.608
									C726.183,87.887,718.54,93.411,710.459,92.161z"/>
								<path style="fill:#4B284C;" d="M699.293,67.538c1.265-4.331,4.809-8.169,8.629-9.157
									c4.96,7.661,12.769,10.711,22.278,11.823c0,0,4.623-19.653-20.031-18.146C696.194,54.979,699.293,67.538,699.293,67.538z"/>
								<g>
									<path style="fill:#FFB9A9;" d="M700.119,71.629c0,0-1.111-5.067-4.442-3.349c-3.331,1.718-1.525,9.74,2.398,11.104
										C701.997,80.747,700.119,71.629,700.119,71.629z"/>
									<path style="fill:#FFB9A9;" d="M726.63,75.729c0,0,2.619-4.49,5.262-1.848s-1.547,9.737-5.703,9.851
										C722.033,83.846,726.63,75.729,726.63,75.729z"/>
									<path style="fill:#FFFFFF;" d="M697.226,78.451c-0.093,0.588-0.633,0.993-1.208,0.904
										c-0.574-0.089-0.964-0.638-0.872-1.226c0.093-0.588,0.633-0.993,1.207-0.904S697.318,77.862,697.226,78.451z"/>
									<path style="fill:#FFFFFF;" d="M729.364,83.421c-0.093,0.588-0.633,0.993-1.207,0.904
										c-0.574-0.089-0.964-0.638-0.872-1.226c0.093-0.588,0.633-0.993,1.207-0.904C729.067,82.284,729.457,82.833,729.364,83.421
										z"/>
									<path style="fill:#E07C68;" d="M696.805,75.721c-1.28-1.282-2.042-3.738-1.145-5.105c0.3-0.435,0.742-0.669,1.171-0.645
										c0.621,0.022,1.233,0.491,1.722,1.32l-0.436,0.252c-0.394-0.666-0.869-1.057-1.304-1.073
										c-0.324-0.002-0.595,0.222-0.733,0.422c-0.755,1.15-0.039,3.353,1.084,4.476L696.805,75.721z"/>
									<path style="fill:#E07C68;" d="M728.526,80.626l-0.233-0.443c1.414-0.731,2.774-2.613,2.407-3.941
										c-0.068-0.226-0.223-0.522-0.565-0.618c-0.42-0.117-0.993,0.113-1.572,0.628l-0.337-0.372
										c0.721-0.641,1.448-0.906,2.045-0.737c0.44,0.123,0.764,0.464,0.914,0.961C731.622,77.683,730.141,79.792,728.526,80.626z"
										/>
								</g>
								<g>
									<g>
										<g>
											<path style="fill:#4B284C;" d="M708.017,73.068c-0.081,0.503-0.554,0.847-1.055,0.768
												c-0.501-0.079-0.841-0.552-0.76-1.055s0.554-0.847,1.055-0.768C707.758,72.092,708.098,72.564,708.017,73.068z"/>
											<path style="fill:#4B284C;" d="M709.228,70.839c-1.06-0.743-2.401-0.951-4.094-0.638l-0.093-0.491
												c1.835-0.341,3.301-0.104,4.478,0.721L709.228,70.839z"/>
										</g>
										<g>
											<path style="fill:#4B284C;" d="M721.852,75.261c-0.08,0.495-0.545,0.834-1.038,0.755
												c-0.493-0.078-0.828-0.543-0.748-1.038c0.08-0.495,0.545-0.834,1.038-0.755C721.597,74.3,721.932,74.765,721.852,75.261z
												"/>
											<path style="fill:#4B284C;" d="M723.331,73.074c-1.06-0.744-2.402-0.951-4.094-0.638l-0.093-0.491
												c1.834-0.339,3.301-0.104,4.478,0.721L723.331,73.074z"/>
										</g>
									</g>
									<path style="fill:#E07C68;" d="M713.782,83.055c-1.735,0-3.454-0.599-5.138-1.794l0.294-0.406
										c2.491,1.768,4.949,2.159,7.512,1.198l0.18,0.468C715.677,82.876,714.727,83.055,713.782,83.055z"/>
									<path style="fill:#E07C68;" d="M712.135,78.635l-0.049-0.498c1.426-0.137,3.024-0.571,3.036-0.975
										c0.02-0.598-1.578-3.076-2.59-4.496l0.412-0.288c0.454,0.637,2.713,3.86,2.682,4.801
										C715.593,78.223,712.946,78.557,712.135,78.635z"/>
								</g>
							</g>
						</g>
						<polygon style="fill:#F7E6DF;" points="750,63.972 740.478,124.345 672.703,113.864 686.081,29.045 750,38.93 750,38.424 
							685.66,28.474 672.165,114.034 672.127,114.281 740.898,124.916 750,67.209 						"/>
					</g>
					<g>
						<path style="fill:#D85B6B;" d="M688.896,142.841c-0.116,0-0.234-0.009-0.351-0.027l-17.766-2.747
							c-1.227-0.189-2.07-1.333-1.879-2.55l0.351-2.226c0.093-0.587,0.412-1.105,0.899-1.457c0.489-0.352,1.082-0.495,1.677-0.404
							l17.767,2.748c0.593,0.092,1.114,0.408,1.47,0.891c0.356,0.483,0.501,1.072,0.408,1.659l-0.351,2.227
							c-0.093,0.587-0.412,1.104-0.899,1.457C689.83,142.693,689.369,142.841,688.896,142.841z M671.478,133.901
							c-0.368,0-0.725,0.115-1.03,0.335c-0.379,0.274-0.626,0.675-0.698,1.13l-0.351,2.227c-0.149,0.944,0.505,1.832,1.458,1.979
							l17.768,2.748c0.456,0.072,0.92-0.041,1.3-0.314c0.379-0.274,0.626-0.675,0.698-1.13l0.351-2.227
							c0.072-0.455-0.04-0.912-0.317-1.287c-0.277-0.375-0.682-0.621-1.141-0.692l-17.767-2.748
							C671.658,133.908,671.567,133.901,671.478,133.901z"/>
						<path style="fill:#D85B6B;" d="M686.171,160.111c-0.116,0-0.233-0.009-0.349-0.027h-0.001l-17.766-2.747
							c-1.227-0.19-2.07-1.334-1.879-2.55l0.351-2.227c0.191-1.215,1.347-2.05,2.575-1.861l17.767,2.748
							c0.593,0.092,1.114,0.408,1.471,0.891c0.356,0.483,0.501,1.072,0.408,1.659l-0.351,2.227
							c-0.093,0.587-0.412,1.104-0.899,1.456C687.105,159.963,686.645,160.111,686.171,160.111z M685.899,159.59
							c0.961,0.148,1.851-0.501,1.999-1.444l0.351-2.227c0.072-0.455-0.04-0.912-0.316-1.287c-0.277-0.375-0.682-0.621-1.142-0.692
							l-17.767-2.747c-0.958-0.152-1.85,0.501-1.998,1.444l-0.351,2.227c-0.149,0.944,0.506,1.831,1.459,1.979l17.767,2.748H685.899
							z"/>
						<path style="fill:#457399;" d="M750,295.985l-100.234-15.501c-0.759-0.117-1.428-0.523-1.885-1.142
							c-0.456-0.619-0.642-1.374-0.523-2.125c0.118-0.751,0.528-1.414,1.153-1.866c0.625-0.452,1.386-0.636,2.146-0.518L750,290.197
							v-0.506l-99.265-15.351c-0.893-0.136-1.787,0.079-2.521,0.609c-0.734,0.531-1.215,1.309-1.354,2.192
							c-0.14,0.883,0.079,1.77,0.614,2.496c0.535,0.727,1.321,1.203,2.213,1.341L750,296.491V295.985z"/>
						<polygon style="fill:#DBB3A7;" points="748.305,152.056 699.9,144.57 699.979,144.076 748.384,151.562 						"/>
						<polygon style="fill:#DBB3A7;" points="750,169.503 732.31,166.767 732.232,167.261 750,170.009 						"/>
						<polygon style="fill:#DBB3A7;" points="721.379,165.583 697.176,161.84 697.255,161.346 721.458,165.089 						"/>
						<path style="fill:#D85B6B;" d="M679.006,205.543c-0.116,0-0.234-0.009-0.351-0.027l-17.766-2.748
							c-1.227-0.189-2.07-1.333-1.879-2.55l0.351-2.227c0.192-1.215,1.349-2.053,2.575-1.861l17.768,2.747
							c0.593,0.092,1.115,0.408,1.47,0.891c0.356,0.483,0.501,1.072,0.408,1.659l-0.351,2.226c-0.093,0.587-0.412,1.105-0.899,1.457
							C679.94,205.395,679.479,205.543,679.006,205.543z M661.588,196.604c-0.847,0-1.594,0.612-1.728,1.465l-0.351,2.227
							c-0.149,0.944,0.505,1.832,1.458,1.979l17.768,2.747c0.457,0.071,0.921-0.041,1.3-0.314c0.379-0.274,0.626-0.675,0.698-1.13
							l0.351-2.227c0.072-0.455-0.04-0.912-0.317-1.287c-0.277-0.375-0.682-0.62-1.142-0.692l-17.766-2.748
							C661.768,196.611,661.677,196.604,661.588,196.604z"/>
						<polygon style="fill:#DBB3A7;" points="750,216.044 725.144,212.2 725.066,212.694 750,216.55 						"/>
						<polygon style="fill:#DBB3A7;" points="714.214,211.015 690.011,207.273 690.089,206.779 714.292,210.521 						"/>
						<g>
							<path style="fill:#D85B6B;" d="M676.141,223.706c-0.115,0-0.232-0.009-0.348-0.027l-17.768-2.747
								c-1.228-0.19-2.071-1.335-1.88-2.55l0.351-2.227c0.193-1.216,1.36-2.047,2.575-1.862l17.766,2.748
								c1.229,0.19,2.072,1.334,1.881,2.551l-0.351,2.227C678.193,222.918,677.231,223.706,676.141,223.706z M675.869,223.185
								c0.957,0.147,1.849-0.5,1.999-1.444l0.351-2.227c0.149-0.944-0.506-1.832-1.46-1.979l-17.766-2.747
								c-0.959-0.146-1.85,0.5-1.999,1.445l-0.351,2.227c-0.149,0.944,0.506,1.831,1.46,1.979L675.869,223.185L675.869,223.185z"/>
							<polygon style="fill:#DBB3A7;" points="750,234.649 687.224,224.941 687.146,225.435 750,235.155 							"/>
						</g>
						<polygon style="fill:#DBB3A7;" points="750,274.829 650.116,259.382 650.037,259.877 750,275.335 						"/>
						<path style="fill:#457399;" d="M714.93,188.083c-0.19,0-0.382-0.015-0.573-0.044l-48.509-7.501
							c-2.01-0.311-3.39-2.184-3.076-4.174c0.152-0.961,0.675-1.808,1.473-2.385c0.798-0.577,1.772-0.81,2.743-0.662l48.508,7.502
							c0.969,0.15,1.824,0.668,2.407,1.458c0.583,0.79,0.82,1.755,0.669,2.716c-0.151,0.96-0.674,1.807-1.472,2.384
							C716.46,187.841,715.705,188.083,714.93,188.083z M666.417,173.773c-0.669,0-1.32,0.21-1.873,0.61
							c-0.689,0.499-1.141,1.229-1.272,2.058c-0.131,0.829,0.074,1.661,0.578,2.344c0.503,0.683,1.241,1.13,2.078,1.259
							l48.509,7.501c0.836,0.128,1.678-0.074,2.367-0.572c0.689-0.498,1.141-1.229,1.271-2.057c0.131-0.829-0.074-1.661-0.578-2.344
							c-0.503-0.683-1.241-1.13-2.077-1.259l-48.51-7.502C666.745,173.786,666.58,173.773,666.417,173.773z"/>
						<polygon style="fill:#DBB3A7;" points="750,258.337 652.049,243.189 651.971,243.683 750,258.843 						"/>
					</g>
				</g>
			</g>
			<g>
				<path style="fill:#4B284C;" d="M577.412,242.272l-0.512,5.597c-0.085,0.927-0.913,1.617-1.84,1.532l0,0
					c-0.927-0.085-1.617-0.913-1.532-1.84l0.512-5.596c0.085-0.927,0.913-1.617,1.84-1.532l0,0
					C576.807,240.517,577.497,241.345,577.412,242.272z"/>
				<path style="fill:#D85B6B;" d="M603.572,19.661l-0.932,10.198c-0.249,2.727-2.684,4.753-5.411,4.504l-4.974-0.455
					c-2.727-0.249-4.753-2.684-4.504-5.411l0.932-10.198c0.249-2.727,2.684-4.753,5.411-4.504l4.974,0.455
					C601.795,14.5,603.822,16.935,603.572,19.661z"/>
				
					<rect x="481.864" y="122.376" transform="matrix(0.0911 -0.9958 0.9958 0.0911 403.3225 701.5846)" style="fill:#FFB74D;" width="208.254" height="14.951"/>
				
					<rect x="478.267" y="129.022" transform="matrix(0.0908 -0.9959 0.9959 0.0908 400.5355 697.7531)" style="fill:#F29A25;" width="208.254" height="1"/>
				
					<rect x="485.443" y="129.678" transform="matrix(0.0909 -0.9959 0.9959 0.0909 406.3511 705.4788)" style="fill:#F29A25;" width="208.254" height="1"/>
				
					<rect x="590.039" y="22.743" transform="matrix(0.0911 -0.9958 0.9958 0.0911 510.817 620.1025)" style="fill:#FFFFFF;" width="10.131" height="14.959"/>
				
					<rect x="594.346" y="25.565" transform="matrix(0.0911 -0.9958 0.9958 0.0911 507.7628 622.4086)" style="fill:#E8D7CF;" width="1" height="14.959"/>
				
					<rect x="594.862" y="19.922" transform="matrix(0.091 -0.9958 0.9958 0.091 513.8739 617.7968)" style="fill:#E8D7CF;" width="1" height="14.959"/>
				<polygon style="fill:#E0BDAF;" points="573.702,244.03 577.37,244.365 583.954,234.226 569.065,232.865 				"/>
			</g>
			<g>
				<g>
					<path style="fill:#F29A25;" d="M126.781,231.511l-0.551-0.509l21.714-23.506c1.174-1.27,1.782-2.929,1.713-4.67
						c-0.069-1.741-0.806-3.347-2.077-4.521c-2.635-2.434-6.757-2.27-9.191,0.364l-14.711,15.924l-0.551-0.509l14.711-15.924
						c1.309-1.418,3.1-2.241,5.041-2.317c1.942-0.082,3.791,0.602,5.209,1.911c1.417,1.31,2.241,3.1,2.317,5.042
						c0.077,1.941-0.602,3.791-1.912,5.208L126.781,231.511z"/>
					<path style="fill:#F29A25;" d="M114.009,239.189c-1.496,0-2.995-0.54-4.178-1.632c-2.495-2.305-2.649-6.209-0.345-8.704
						l16.195-17.532l0.551,0.509l-16.195,17.532c-2.024,2.191-1.888,5.62,0.303,7.645c2.191,2.023,5.621,1.888,7.645-0.303
						l16.195-17.532l0.551,0.509l-16.195,17.532C117.324,238.524,115.669,239.189,114.009,239.189z"/>
					<path style="fill:#F29A25;" d="M125.233,229.963l-0.551-0.509l13.145-14.23c0.77-0.833,1.169-1.922,1.124-3.064
						c-0.045-1.143-0.529-2.196-1.363-2.966l-0.118-0.109c-0.833-0.77-1.923-1.174-3.064-1.124
						c-1.143,0.045-2.196,0.529-2.966,1.363l-13.204,14.293l-0.551-0.509l13.204-14.293c0.906-0.981,2.144-1.55,3.487-1.604
						c1.344-0.048,2.622,0.416,3.603,1.323l0.118,0.109c0.98,0.906,1.55,2.144,1.603,3.487c0.053,1.342-0.417,2.622-1.323,3.602
						L125.233,229.963z"/>
				</g>
				<g>
					<path style="fill:#4B284C;" d="M86.978,283.919c-0.484,0-0.972-0.049-1.459-0.146c-1.904-0.384-3.541-1.48-4.61-3.088
						l-17.711-26.653l0.625-0.415l17.711,26.653c0.957,1.441,2.425,2.423,4.133,2.768c1.706,0.343,3.442,0.006,4.883-0.951
						c2.986-1.984,3.802-6.029,1.817-9.016L80.37,255.014l0.625-0.415l11.998,18.056c2.213,3.332,1.304,7.843-2.027,10.056
						C89.769,283.507,88.391,283.918,86.978,283.919z"/>
					<path style="fill:#4B284C;" d="M72.816,264.552l-13.209-19.879c-0.907-1.365-1.227-3.007-0.901-4.625
						c0.326-1.617,1.257-3.007,2.622-3.914c2.829-1.879,6.661-1.106,8.54,1.721l13.209,19.879l-0.625,0.415L69.243,238.27
						c-1.65-2.484-5.015-3.163-7.5-1.511c-1.198,0.796-2.016,2.017-2.302,3.438c-0.286,1.421-0.005,2.863,0.791,4.061l13.209,19.878
						L72.816,264.552z"/>
					<path style="fill:#4B284C;" d="M79.977,271.266c-1.625,0-3.221-0.787-4.187-2.239l-10.721-16.134l0.625-0.415l10.721,16.134
						c1.303,1.96,3.957,2.495,5.916,1.192l0.134-0.089c0.945-0.628,1.59-1.591,1.816-2.712c0.226-1.121,0.004-2.258-0.624-3.204
						l-10.769-16.207l0.625-0.415l10.769,16.207c1.531,2.304,0.902,5.424-1.402,6.956l-0.134,0.089
						C81.894,270.995,80.931,271.266,79.977,271.266z"/>
				</g>
				<g>
					<path style="fill:#C43B52;" d="M657.68,411.257c-0.619,0-1.243-0.08-1.858-0.241c-1.88-0.491-3.452-1.679-4.427-3.344
						c-2.021-3.451-0.857-7.904,2.594-9.925l27.614-16.17l0.379,0.647l-27.614,16.17c-3.095,1.813-4.138,5.805-2.326,8.899
						c0.874,1.493,2.284,2.557,3.97,2.997c1.688,0.44,3.438,0.202,4.929-0.672l18.708-10.955l0.379,0.647l-18.708,10.955
						C660.199,410.922,658.949,411.257,657.68,411.257z"/>
					<path style="fill:#C43B52;" d="M676.778,401.213l-0.379-0.647l20.596-12.061c1.241-0.727,2.127-1.899,2.494-3.302
						c0.366-1.402,0.168-2.858-0.559-4.1c-0.728-1.241-1.899-2.127-3.303-2.494c-1.404-0.368-2.858-0.169-4.1,0.559l-20.596,12.061
						l-0.379-0.647l20.596-12.061c1.416-0.828,3.076-1.054,4.668-0.637c1.597,0.417,2.932,1.426,3.76,2.84
						c0.828,1.414,1.055,3.072,0.638,4.668c-0.418,1.597-1.427,2.932-2.841,3.76L676.778,401.213z"/>
					<path style="fill:#C43B52;" d="M668.551,402.781c-0.429,0-0.859-0.055-1.285-0.166c-1.3-0.34-2.388-1.162-3.062-2.314
						l-0.081-0.136c-1.399-2.389-0.594-5.469,1.793-6.867l16.717-9.789l0.379,0.647l-16.717,9.789
						c-2.03,1.189-2.715,3.808-1.526,5.838l0.081,0.136c0.574,0.982,1.5,1.68,2.605,1.969c1.105,0.291,2.255,0.133,3.234-0.441
						l16.791-9.833l0.379,0.648l-16.791,9.832C670.294,402.549,669.429,402.781,668.551,402.781z"/>
				</g>
			</g>
			<g>
				<path style="fill:#FFFFFF;" d="M74.234,124.684l-15.476,10.497c-2.874,1.949-6.785,1.2-8.734-1.674l0,0
					c-1.95-2.874-1.2-6.785,1.674-8.734l15.476-10.496c2.874-1.95,6.785-1.2,8.734,1.674l0,0
					C77.858,118.824,77.109,122.735,74.234,124.684z"/>
				
					<ellipse transform="matrix(0.4276 -0.904 0.904 0.4276 -15.2669 155.0471)" style="fill:#FFFFFF;" cx="114.791" cy="89.578" rx="57.159" ry="57.159"/>
				<path style="fill:#DBB3A7;" d="M114.769,146.995c-19.098,0-36.703-9.288-47.49-25.191c-4.044-5.963-6.898-12.517-8.481-19.481
					l0.487-0.111c1.569,6.903,4.398,13.401,8.408,19.312c11.174,16.476,29.721,25.796,49.65,24.915l0.021,0.5
					C116.498,146.976,115.63,146.995,114.769,146.995z"/>
				<circle style="fill:#EEDECF;" cx="114.791" cy="89.578" r="51.667"/>
				<path style="fill:#DBB3A7;" d="M114.797,141.463c-11.995,0.001-23.944-4.114-33.527-12.222l0.323-0.382
					c17.523,14.825,43.042,16.169,62.06,3.271c11.366-7.709,19.05-19.383,21.636-32.872c2.586-13.488-0.236-27.176-7.945-38.543
					c-3.96-5.837-8.957-10.706-14.852-14.471l0.27-0.422c5.953,3.802,10.999,8.718,14.997,14.612
					c7.784,11.477,10.633,25.298,8.022,38.918c-2.611,13.62-10.369,25.407-21.846,33.191
					C135.131,138.515,124.948,141.462,114.797,141.463z"/>
				
					<ellipse transform="matrix(0.9993 -0.0376 0.0376 0.9993 -3.2865 4.3788)" style="fill:#7C5161;" cx="114.791" cy="89.578" rx="43.022" ry="43.022"/>
				<path style="fill:#633545;" d="M124.848,126.314c7.146-1.648,13.966-5.487,18.199-11.475c4.233-5.989,5.511-14.246,2.303-20.841
					c-2.803-5.762-8.631-9.87-10.431-16.02c-0.957-3.269-0.861-7.211-3.468-9.404c-3.157-2.657-7.935-0.902-12.021-1.472
					c-5.018-0.701-8.761-4.919-13.424-6.901c-5.07-2.155-11.117-1.461-15.894,1.281c-7.245,4.159-11.855,12.784-13.202,20.837
					c-2.113,12.642,2.303,25.933,11.585,34.779C97.873,126.034,112.226,129.225,124.848,126.314z"/>
				<g>
					<path style="fill:#633545;" d="M115.883,58.007c-1.708,0.591-3.571-0.315-4.162-2.023c-0.591-1.708,0.315-3.571,2.023-4.162
						c1.708-0.591,3.571,0.315,4.162,2.023C118.497,55.553,117.591,57.416,115.883,58.007z"/>
					<path style="fill:#633545;" d="M107.304,55.935c-0.93,0.322-1.946-0.172-2.267-1.102c-0.322-0.93,0.172-1.945,1.102-2.267
						c0.93-0.322,1.946,0.172,2.267,1.102C108.728,54.598,108.235,55.613,107.304,55.935z"/>
					<path style="fill:#633545;" d="M113.032,61.905c-0.93,0.322-1.946-0.172-2.267-1.102c-0.322-0.93,0.172-1.946,1.102-2.267
						c0.93-0.322,1.946,0.172,2.267,1.102C114.455,60.568,113.962,61.583,113.032,61.905z"/>
					<path style="fill:#633545;" d="M119.575,51.403c-0.93,0.322-1.945-0.172-2.267-1.102c-0.322-0.93,0.172-1.946,1.102-2.267
						c0.93-0.322,1.946,0.172,2.267,1.102C120.999,50.066,120.506,51.081,119.575,51.403z"/>
					<path style="fill:#633545;" d="M127.935,54.849c-0.93,0.322-1.945-0.172-2.267-1.102c-0.322-0.93,0.172-1.946,1.102-2.267
						c0.93-0.322,1.945,0.172,2.267,1.102C129.359,53.512,128.866,54.527,127.935,54.849z"/>
					<path style="fill:#633545;" d="M140.921,65.181c-0.93,0.322-1.946-0.172-2.267-1.102c-0.322-0.93,0.172-1.945,1.102-2.267
						c0.93-0.322,1.946,0.172,2.267,1.102C142.345,63.844,141.852,64.859,140.921,65.181z"/>
					<path style="fill:#633545;" d="M147.182,83.285c-0.93,0.322-1.945-0.172-2.267-1.102c-0.322-0.93,0.172-1.945,1.102-2.267
						c0.93-0.322,1.946,0.172,2.267,1.102C148.606,81.948,148.113,82.963,147.182,83.285z"/>
					<path style="fill:#633545;" d="M152.737,85.475c-0.93,0.322-1.946-0.172-2.267-1.102c-0.322-0.93,0.172-1.946,1.102-2.267
						c0.93-0.322,1.945,0.172,2.267,1.102C154.16,84.138,153.667,85.153,152.737,85.475z"/>
					<path style="fill:#633545;" d="M150.556,90.077c-0.658,0.228-1.376-0.121-1.603-0.779c-0.227-0.658,0.121-1.376,0.779-1.603
						c0.658-0.228,1.376,0.121,1.603,0.779C151.562,89.132,151.214,89.849,150.556,90.077z"/>
					<path style="fill:#633545;" d="M144.684,71.994c-0.93,0.322-1.945-0.172-2.267-1.102c-0.322-0.93,0.172-1.946,1.102-2.267
						c0.93-0.322,1.945,0.172,2.267,1.102C146.108,70.657,145.615,71.673,144.684,71.994z"/>
					<path style="fill:#633545;" d="M135.853,70.905c-0.93,0.322-1.945-0.172-2.267-1.102c-0.322-0.93,0.172-1.946,1.102-2.267
						c0.93-0.322,1.945,0.172,2.267,1.102C137.277,69.568,136.784,70.583,135.853,70.905z"/>
					<path style="fill:#633545;" d="M134.225,64.957c-1.312,0.454-2.744-0.242-3.197-1.554c-0.454-1.312,0.242-2.744,1.554-3.197
						c1.312-0.454,2.743,0.242,3.197,1.554C136.233,63.071,135.537,64.503,134.225,64.957z"/>
					<path style="fill:#633545;" d="M139.973,76.203c-0.815,0.282-1.704-0.15-1.986-0.965c-0.282-0.815,0.15-1.704,0.965-1.986
						c0.815-0.282,1.704,0.15,1.986,0.965C141.22,75.032,140.788,75.921,139.973,76.203z"/>
					<path style="fill:#633545;" d="M117.693,61.656c-0.542,0.187-1.133-0.1-1.321-0.642c-0.188-0.542,0.1-1.133,0.642-1.321
						c0.542-0.187,1.133,0.1,1.321,0.642C118.523,60.877,118.235,61.468,117.693,61.656z"/>
					<path style="fill:#633545;" d="M144.814,88.209c-0.542,0.188-1.133-0.1-1.321-0.642c-0.188-0.542,0.1-1.133,0.642-1.321
						c0.542-0.188,1.133,0.1,1.321,0.642C145.643,87.43,145.356,88.022,144.814,88.209z"/>
					<path style="fill:#633545;" d="M122.616,52.916c-0.345,0.119-0.722-0.064-0.841-0.409c-0.119-0.345,0.064-0.722,0.409-0.841
						c0.345-0.12,0.722,0.064,0.842,0.409C123.144,52.42,122.961,52.797,122.616,52.916z"/>
					<path style="fill:#633545;" d="M122.824,57.367c-0.345,0.119-0.722-0.064-0.841-0.409c-0.119-0.345,0.064-0.722,0.409-0.841
						c0.345-0.119,0.722,0.064,0.841,0.409C123.353,56.871,123.169,57.248,122.824,57.367z"/>
					<path style="fill:#633545;" d="M121.806,60.549c-0.345,0.119-0.722-0.064-0.841-0.409s0.064-0.722,0.409-0.841
						c0.345-0.119,0.722,0.064,0.841,0.409C122.334,60.053,122.151,60.43,121.806,60.549z"/>
					<path style="fill:#633545;" d="M125.468,63.188c-0.345,0.12-0.722-0.064-0.841-0.409c-0.119-0.345,0.064-0.722,0.409-0.842
						s0.722,0.064,0.841,0.409C125.997,62.692,125.814,63.068,125.468,63.188z"/>
					<path style="fill:#633545;" d="M138.526,59.64c-0.345,0.119-0.722-0.064-0.841-0.409c-0.119-0.345,0.064-0.722,0.409-0.841
						c0.345-0.119,0.722,0.064,0.842,0.409C139.054,59.144,138.871,59.521,138.526,59.64z"/>
					<path style="fill:#633545;" d="M139.689,70.65c-0.345,0.119-0.722-0.064-0.842-0.409c-0.119-0.345,0.064-0.722,0.409-0.841
						c0.345-0.119,0.722,0.064,0.841,0.409C140.217,70.153,140.034,70.53,139.689,70.65z"/>
					<path style="fill:#633545;" d="M145.091,65.391c-0.345,0.119-0.722-0.064-0.842-0.409c-0.119-0.345,0.064-0.722,0.409-0.841
						c0.345-0.119,0.722,0.064,0.841,0.409C145.619,64.895,145.436,65.272,145.091,65.391z"/>
					<path style="fill:#633545;" d="M148.856,75.723c-0.345,0.119-0.722-0.064-0.841-0.409c-0.12-0.345,0.064-0.722,0.409-0.841
						c0.345-0.119,0.722,0.064,0.841,0.409C149.384,75.227,149.201,75.603,148.856,75.723z"/>
					<path style="fill:#633545;" d="M151.589,77.238c-0.345,0.119-0.722-0.064-0.842-0.409c-0.119-0.345,0.064-0.722,0.409-0.842
						c0.345-0.119,0.722,0.064,0.842,0.409C152.117,76.742,151.934,77.118,151.589,77.238z"/>
					<path style="fill:#633545;" d="M147.667,78.594c-0.345,0.119-0.722-0.064-0.841-0.409c-0.119-0.345,0.064-0.722,0.409-0.841
						c0.345-0.119,0.722,0.064,0.842,0.409C148.195,78.098,148.012,78.475,147.667,78.594z"/>
					<path style="fill:#633545;" d="M139.174,80.378c-0.345,0.119-0.722-0.064-0.842-0.409c-0.119-0.345,0.064-0.722,0.409-0.841
						c0.345-0.119,0.722,0.064,0.841,0.409C139.702,79.882,139.519,80.258,139.174,80.378z"/>
					<path style="fill:#633545;" d="M144.122,77.845c-0.345,0.119-0.722-0.064-0.842-0.409c-0.119-0.345,0.064-0.722,0.409-0.842
						c0.345-0.119,0.722,0.064,0.842,0.409C144.65,77.349,144.467,77.726,144.122,77.845z"/>
					<path style="fill:#633545;" d="M143.543,81.751c-0.345,0.119-0.722-0.064-0.841-0.409c-0.12-0.345,0.064-0.722,0.409-0.841
						c0.345-0.119,0.722,0.064,0.841,0.409C144.072,81.255,143.889,81.631,143.543,81.751z"/>
					<path style="fill:#633545;" d="M152.871,94.938c-0.345,0.119-0.722-0.064-0.842-0.409c-0.119-0.345,0.064-0.722,0.409-0.841
						c0.345-0.119,0.722,0.064,0.842,0.409C153.399,94.442,153.216,94.819,152.871,94.938z"/>
					<path style="fill:#633545;" d="M149.942,96.204c-0.345,0.119-0.722-0.064-0.841-0.409c-0.12-0.345,0.064-0.722,0.409-0.841
						c0.345-0.119,0.722,0.064,0.841,0.409S150.287,96.084,149.942,96.204z"/>
					<path style="fill:#633545;" d="M154.636,90.437c-0.345,0.119-0.722-0.064-0.842-0.409c-0.119-0.345,0.064-0.722,0.409-0.841
						c0.345-0.119,0.722,0.064,0.841,0.409C155.164,89.941,154.981,90.318,154.636,90.437z"/>
					<path style="fill:#633545;" d="M145.964,90.785c-0.345,0.119-0.722-0.064-0.841-0.409c-0.119-0.345,0.064-0.722,0.409-0.841
						c0.345-0.119,0.722,0.064,0.842,0.409C146.493,90.289,146.31,90.665,145.964,90.785z"/>
					<path style="fill:#633545;" d="M151.723,98.437c-0.345,0.119-0.722-0.064-0.841-0.409s0.064-0.722,0.409-0.841
						c0.345-0.119,0.722,0.064,0.841,0.409C152.251,97.941,152.068,98.318,151.723,98.437z"/>
					<path style="fill:#633545;" d="M128.812,60.481c-0.345,0.119-0.722-0.064-0.841-0.409c-0.119-0.345,0.064-0.722,0.409-0.842
						c0.345-0.119,0.722,0.064,0.841,0.409C129.34,59.985,129.157,60.361,128.812,60.481z"/>
					<path style="fill:#633545;" d="M112.449,50.235c-0.303,0.105-0.634-0.056-0.739-0.359c-0.105-0.303,0.056-0.635,0.359-0.739
						c0.303-0.105,0.634,0.056,0.739,0.359C112.913,49.799,112.752,50.13,112.449,50.235z"/>
					<path style="fill:#633545;" d="M103.259,54.177c-0.303,0.105-0.634-0.056-0.739-0.359c-0.105-0.303,0.056-0.634,0.359-0.739
						c0.303-0.105,0.634,0.056,0.739,0.359C103.724,53.741,103.563,54.072,103.259,54.177z"/>
					<path style="fill:#633545;" d="M109.714,56.475c0.271,0.172,0.352,0.531,0.18,0.802c-0.172,0.271-0.531,0.352-0.802,0.18
						c-0.271-0.172-0.352-0.531-0.18-0.802C109.083,56.384,109.442,56.303,109.714,56.475z"/>
				</g>
			</g>
			<g>
				<path style="fill:#FFFFFF;" d="M153.68,362.566L94.907,386.65c-3.812,1.562-8.209-0.279-9.772-4.091L74.859,357.48
					c-1.562-3.812,0.279-8.209,4.091-9.771l58.773-24.084c3.812-1.562,8.209,0.279,9.771,4.091l10.277,25.079
					C159.333,356.607,157.492,361.004,153.68,362.566z"/>
				<path style="fill:#F9EDE4;" d="M139.907,323.095c-0.028,0.11-0.062,0.219-0.084,0.329c-0.022,0.116-0.034,0.227-0.007,0.343
					c0.034,0.149,0.101,0.292,0.151,0.436c0.086,0.248,0.157,0.498,0.271,0.736c0.4,0.838,1.11,1.288,1.972,1.553
					c0.818,0.251,1.66,0.413,2.409,0.848c0.245,0.142,0.473,0.312,0.687,0.498c0.109,0.095,0.233,0.201,0.304,0.33
					c0.081,0.147,0.042,0.256-0.045,0.388c-0.473,0.718,0.172,1.635,0.831,1.98c0.363,0.19,0.736,0.34,1.035,0.63
					c0.293,0.285,0.5,0.678,0.598,1.073c0.195,0.782-0.056,1.578-0.333,2.307c-0.293,0.771-0.692,1.574-0.671,2.418
					c0.021,0.866,0.423,1.584,1.217,1.949c0.67,0.308,1.415,0.392,2.106,0.638c0.331,0.118,0.643,0.275,0.912,0.502
					c0.291,0.245,0.496,0.569,0.676,0.901c0.246,0.453,0.442,0.933,0.617,1.417c0.14,0.388,0.287,0.788,0.363,1.194
					c0.109,0.582,0.083,1.176,0.04,1.764c-0.041,0.551-0.118,1.13-0.02,1.679c0.103,0.576,0.74,0.947,1.026,1.433
					c0.211,0.359,0.193,0.878,0.118,1.278c-0.138,0.745-0.645,1.386-0.603,2.168c0.031,0.569,0.286,1.121,0.6,1.587
					c0.238,0.354,0.536,0.673,0.717,1.063c0.229,0.495,0.191,1.02,0.168,1.551c-0.025,0.583-0.196,1.156-0.392,1.702
					c-0.21,0.588-0.456,1.166-0.692,1.744c-0.18,0.442-0.392,0.889-0.492,1.359c-0.078,0.368-0.038,0.719,0.19,1.027
					c0.132,0.178,0.301,0.329,0.48,0.468c3.551-1.692,5.223-5.912,3.714-9.594l-10.277-25.079
					C146.225,324.618,143.085,322.822,139.907,323.095z"/>
				
					<rect x="95.413" y="332.686" transform="matrix(0.9253 -0.3792 0.3792 0.9253 -125.7345 70.9842)" style="fill:#D85B6B;" width="43.875" height="44.054"/>
				<path style="fill:#C43B52;" d="M126.707,336.496c-0.975,0-1.9-0.58-2.292-1.536c-0.25-0.611-0.248-1.284,0.007-1.893
					c0.255-0.609,0.732-1.083,1.344-1.334c1.259-0.516,2.71,0.089,3.227,1.352c0.517,1.262-0.089,2.709-1.351,3.227
					C127.336,336.436,127.019,336.496,126.707,336.496z M126.701,332.299c-0.217,0-0.438,0.041-0.651,0.129
					c-0.426,0.174-0.758,0.504-0.936,0.929c-0.178,0.425-0.18,0.893-0.005,1.319c0.36,0.879,1.368,1.302,2.249,0.941
					c0.879-0.36,1.301-1.369,0.941-2.248l0,0C128.025,332.703,127.38,332.299,126.701,332.299z"/>
				
					<rect x="106.187" y="377.154" transform="matrix(0.9255 -0.3788 0.3788 0.9255 -134.5733 71.0563)" style="fill:#C43B52;" width="14.214" height="0.75"/>
				<path style="fill:#C43B52;" d="M105.136,361.227c-0.747,0-1.496-0.149-2.208-0.448c-1.406-0.589-2.496-1.685-3.071-3.086
					c-0.574-1.401-0.566-2.947,0.022-4.354c0.589-1.406,1.685-2.497,3.086-3.071l21.516-8.817c2.904-1.189,6.234,0.205,7.425,3.108
					c0.574,1.401,0.566,2.948-0.022,4.354c-0.589,1.406-1.685,2.497-3.086,3.071l-0.142-0.347l0.142,0.347l-21.516,8.817
					C106.59,361.086,105.863,361.227,105.136,361.227z M126.627,341.778c-0.631,0-1.262,0.123-1.862,0.369l-21.516,8.817
					c-1.216,0.498-2.167,1.445-2.678,2.666c-0.511,1.222-0.519,2.564-0.02,3.78c0.498,1.216,1.445,2.167,2.666,2.678
					c1.222,0.512,2.564,0.519,3.78,0.02l21.516-8.817c1.216-0.498,2.167-1.445,2.679-2.667s0.519-2.563,0.02-3.779
					c-0.498-1.216-1.445-2.167-2.667-2.679C127.926,341.908,127.276,341.778,126.627,341.778z"/>
				
					<rect x="108.81" y="360.125" transform="matrix(0.9255 -0.3788 0.3788 0.9255 -127.6289 72.21)" style="fill:#C43B52;" width="21.826" height="0.75"/>
				
					<rect x="115.645" y="363.923" transform="matrix(0.9255 -0.3788 0.3788 0.9255 -128.9514 73.0823)" style="fill:#C43B52;" width="11.267" height="0.75"/>
				
					<rect x="135.928" y="324.92" transform="matrix(0.9253 -0.3792 0.3792 0.9253 -121.3731 77.5894)" style="fill:#C43B52;" width="0.75" height="44.053"/>
			</g>
			<g>
				<g>
					<g>
						
							<rect x="218.76" y="47.863" transform="matrix(0.9899 -0.1421 0.1421 0.9899 -27.3876 50.959)" style="fill:#FFFFFF;" width="248.93" height="338.881"/>
						<g>
							<g>
								
									<rect x="222.541" y="71.246" transform="matrix(0.9899 -0.1421 0.1421 0.9899 -8.8175 46.8599)" style="fill:#F7E6DF;" width="202.518" height="27.884"/>
								<g>
									<path style="fill:#4B284C;" d="M323.571,92.838c-0.585,0.377-2.044,0.979-3.991,1.258c-6.059,0.87-9.273-2.542-9.892-6.841
										c-0.822-5.716,2.943-9.223,7.776-9.917c1.875-0.269,3.441-0.126,4.167,0.137l-0.352,3.531
										c-0.762-0.185-1.79-0.332-3.088-0.145c-2.501,0.359-4.454,2.135-3.978,5.45c0.425,2.954,2.442,4.528,5.424,4.099
										c1.059-0.152,2.205-0.537,2.84-0.897L323.571,92.838z"/>
									<path style="fill:#4B284C;" d="M330.102,92.317l-7.475-15.449l4.762-0.683l2.622,6.119c0.787,1.726,1.477,3.44,2.162,5.475
										l0.048-0.007c0.122-2.052,0.309-3.991,0.542-5.789l0.83-6.688l4.616-0.662l-2.986,16.951L330.102,92.317z"/>
								</g>
							</g>
							<g>
								
									<rect x="232.824" y="120.375" transform="matrix(0.9899 -0.142 0.142 0.9899 -19.9402 39.5492)" style="fill:#F7E6DF;" width="68.424" height="78.124"/>
								<g>
									
										<rect x="260.913" y="156.932" transform="matrix(0.9899 -0.1421 0.1421 0.9899 -21.8765 40.0301)" style="fill:#FFB9A9;" width="17.03" height="32.607"/>
									<path style="fill:#F28E81;" d="M277.289,168.076c-7.275,1.753-13.263,1.774-17.281-0.527l-1.329-9.24l16.858-2.419
										L277.289,168.076z"/>
									<path style="fill:#FFFFFF;" d="M304.831,180.699c-5.512-7.327-27.056-9.244-27.056-9.244
										c-5.164,3.972-10.783,4.778-16.858,2.419c0,0-22.698,8.901-23.758,18.07c-0.049,0.419-0.093,0.858-0.135,1.311
										l1.442,10.027l68.205-9.788L304.831,180.699z"/>
									<path style="fill:#E0BDAF;" d="M265.153,181.187l3.28-6.04c0,0-4.732-0.375-7.309-1.302l-3.364,1.859L265.153,181.187z"/>
									<path style="fill:#E0BDAF;" d="M275.793,179.66l-4.846-4.874c0,0,4.431-1.69,6.641-3.304l3.748,0.838L275.793,179.66z"/>
									<path style="fill:#4B284C;" d="M237.159,191.944c-0.049,0.419-0.093,0.858-0.135,1.311l1.442,10.027l24.222-3.476
										l-3.619-25.16C253.644,176.994,238.035,184.375,237.159,191.944z"/>
									<path style="fill:#4B284C;" d="M304.831,180.699c-4.496-5.977-19.651-8.353-25.086-9.025l3.62,25.165l23.307-3.345
										L304.831,180.699z"/>
									<polygon style="fill:#FFFFFF;" points="260.546,171.292 258.431,174.922 264.963,180.483 268.434,175.147 									"/>
									<polygon style="fill:#FFFFFF;" points="277.405,168.882 280.472,171.759 275.777,178.931 270.946,174.786 									"/>
									<path style="fill:#D85B6B;" d="M268.313,178.005l1.981,20.71l5.507-0.79l-3.935-20.429c0.45-0.27,0.779-0.628,0.978-1.081
										l-1.899-1.628l-1.376,0.262l-1.135,0.098l-1.363,2.096C267.388,177.621,267.805,177.872,268.313,178.005z"/>
									
										<rect x="268.295" y="177.626" transform="matrix(0.99 -0.1412 0.1412 0.99 -22.3919 39.9167)" style="fill:#E2612D;" width="3.592" height="0.249"/>
									<g>
										<g>
											<g>
												<path style="fill:#FFB9A9;" d="M253.328,150.908c0,0-2.483-4.14-4.994-1.666c-2.511,2.474,1.462,9.015,5.407,9.083
													C257.687,158.393,253.328,150.908,253.328,150.908z"/>
												<path style="fill:#E07C68;" d="M250.551,155.027c-0.87-0.917-1.907-2.824-1.37-4.004
													c0.193-0.424,0.676-0.921,1.888-0.869l-0.02,0.499c-0.754-0.035-1.224,0.162-1.412,0.576
													c-0.382,0.838,0.367,2.493,1.278,3.454L250.551,155.027z"/>
											</g>
											<g>
												<path style="fill:#FFB9A9;" d="M278.498,146.866c0,0,1.058-4.709,4.219-3.146c3.161,1.563,1.441,9.018-2.284,10.318
													C276.709,155.338,278.498,146.866,278.498,146.866z"/>
												<path style="fill:#E07C68;" d="M282.715,149.861l-0.452-0.213c0.564-1.197,0.755-3.003,0.129-3.679
													c-0.309-0.334-0.821-0.369-1.522-0.105l-0.177-0.467c1.134-0.429,1.748-0.11,2.065,0.234
													C283.64,146.582,283.253,148.717,282.715,149.861z"/>
											</g>
										</g>
										<path style="fill:#FFB9A9;" d="M269.482,167.309l-1.185,0.19c-7.359,1.182-14.349-3.872-15.533-11.23l-1.981-12.306
											c-1.185-7.364,3.87-14.356,11.234-15.539l1.186-0.19c7.359-1.182,14.349,3.872,15.533,11.23l1.981,12.306
											C281.901,159.133,276.846,166.126,269.482,167.309z"/>
										<path style="fill:#4B284C;" d="M253.075,155.168c-0.23-2.826-0.55-6.684-3.055-6.738l-1.453-4.597
											c-0.866-2.057-0.266-3.57,0.538-4.068c0,0-1.744-10.678,12.857-12.803c14.601-2.125,16.319,5.054,17.286,7.962
											c1.523,0.029,1.988,2.171,2.018,3.201l0.253,5.246c-2.847,0.267-2.461,3.421-1.637,7.492
											c-1.889,0.303-2.513-5.571-2.513-5.571l-1.38-8.647c-7.235,3.481-14.881,4.708-22.939,3.684l1.06,8.727
											C254.111,149.056,255.156,154.834,253.075,155.168z"/>
										<g>
											<path style="fill:#E07C68;" d="M266.781,153.85l-0.215-0.451c0.526-0.251,1.993-1.124,1.826-1.817
												c-0.196-0.814-2.404-3.68-3.238-4.716l0.39-0.313c0.314,0.39,3.077,3.842,3.335,4.913
												C269.168,152.675,267.026,153.733,266.781,153.85z"/>
											<g>
												<path style="fill:#4B284C;" d="M260.75,150.704c0.073,0.467-0.24,0.904-0.701,0.976
													c-0.461,0.072-0.893-0.248-0.967-0.714c-0.073-0.467,0.241-0.904,0.701-0.976
													C260.244,149.918,260.677,150.238,260.75,150.704z"/>
												<path style="fill:#4B284C;" d="M257.419,149.012l-0.239-0.439c1.51-0.822,2.862-1.03,4.132-0.636l-0.148,0.477
													C260.03,148.063,258.804,148.258,257.419,149.012z"/>
											</g>
											<g>
												<path style="fill:#4B284C;" d="M273.464,148.712c0.072,0.459-0.237,0.889-0.69,0.96
													c-0.453,0.071-0.879-0.244-0.951-0.703c-0.072-0.459,0.237-0.889,0.69-0.96
													C272.966,147.938,273.392,148.253,273.464,148.712z"/>
												<path style="fill:#4B284C;" d="M270.38,146.981l-0.239-0.438c1.509-0.822,2.86-1.031,4.132-0.637l-0.148,0.477
													C272.988,146.03,271.764,146.226,270.38,146.981z"/>
											</g>
											<path style="fill:#E07C68;" d="M267.32,157.841c-0.797,0-1.641-0.184-2.529-0.552l0.191-0.461
												c2.192,0.91,4.006,0.627,5.545-0.86l0.348,0.359C269.831,157.336,268.641,157.841,267.32,157.841z"/>
											
												<rect x="268.27" y="161.284" transform="matrix(0.9873 -0.159 0.159 0.9873 -22.3489 44.7561)" style="fill:#E07C68;" width="0.499" height="1.518"/>
											<path style="fill:#4B284C;" d="M273.769,155.807c-0.32-1.855-2.084-3.131-3.953-2.84l-5.437,0.848
												c-1.869,0.292-3.159,2.044-2.898,3.908L273.769,155.807z"/>
										</g>
									</g>
								</g>
								<path style="fill:#F7E6DF;" d="M238.171,203.577l-11.233-78.1l68.615-9.847l11.233,78.1L238.171,203.577z M227.504,125.901
									l11.091,77.111l67.624-9.704l-11.09-77.111L227.504,125.901z"/>
							</g>
							<g>
								<path style="fill:#457399;" d="M321.285,119.142c-1.643,0-3.083-1.208-3.323-2.879c-0.127-0.884,0.1-1.767,0.639-2.486
									c0.539-0.719,1.324-1.185,2.208-1.312l104.47-14.992c1.83-0.259,3.538,1.013,3.802,2.844c0.128,0.884-0.1,1.767-0.639,2.486
									c-0.539,0.719-1.323,1.186-2.209,1.313l-104.468,14.992C321.604,119.131,321.443,119.142,321.285,119.142z M425.758,97.938
									c-0.135,0-0.272,0.01-0.408,0.029l-104.469,14.992c-0.753,0.108-1.42,0.505-1.879,1.117
									c-0.459,0.613-0.653,1.364-0.544,2.115c0.225,1.559,1.675,2.651,3.237,2.421l104.469-14.992
									c0.752-0.108,1.42-0.505,1.879-1.117c0.459-0.613,0.652-1.364,0.545-2.116c-0.108-0.752-0.506-1.418-1.119-1.877
									C426.966,98.135,426.37,97.938,425.758,97.938z"/>
								<path style="fill:#457399;" d="M323.168,132.234c-0.72,0-1.419-0.232-2.009-0.673c-0.72-0.539-1.186-1.322-1.314-2.206
									c-0.127-0.884,0.1-1.766,0.639-2.486c0.539-0.719,1.324-1.186,2.208-1.313l46.854-6.724c0.885-0.128,1.768,0.1,2.489,0.638
									c0.72,0.539,1.187,1.322,1.314,2.206c0.263,1.831-1.014,3.535-2.847,3.799l-46.854,6.724
									C323.488,132.223,323.327,132.234,323.168,132.234z M370.026,119.299c-0.136,0-0.272,0.01-0.408,0.029l-46.854,6.724
									c-0.753,0.108-1.42,0.505-1.879,1.117c-0.46,0.613-0.653,1.364-0.544,2.115c0.108,0.752,0.505,1.419,1.119,1.877
									c0.613,0.459,1.367,0.65,2.118,0.544l46.854-6.724c1.56-0.224,2.647-1.674,2.423-3.233
									c-0.108-0.752-0.505-1.418-1.119-1.877C371.234,119.496,370.639,119.299,370.026,119.299z"/>
								<path style="fill:#D85B6B;" d="M245.124,234.749c-1.091,0-2.048-0.803-2.209-1.913l-0.32-2.229
									c-0.085-0.587,0.066-1.174,0.425-1.652c0.358-0.478,0.879-0.788,1.467-0.872l17.625-2.529
									c0.59-0.081,1.176,0.066,1.654,0.424c0.479,0.358,0.789,0.878,0.873,1.466l0.321,2.228c0.085,0.588-0.066,1.174-0.425,1.652
									c-0.358,0.478-0.88,0.788-1.468,0.872l-17.624,2.529C245.336,234.741,245.229,234.749,245.124,234.749z M262.431,226.03
									c-0.082,0-0.165,0.006-0.248,0.018l-17.625,2.529c-0.456,0.065-0.86,0.306-1.139,0.677c-0.278,0.371-0.395,0.827-0.33,1.282
									l0.32,2.229c0.136,0.944,1.016,1.602,1.962,1.467l17.624-2.529c0.456-0.065,0.86-0.306,1.139-0.677
									c0.278-0.371,0.396-0.827,0.33-1.282l-0.321-2.228c-0.065-0.456-0.306-0.859-0.678-1.137
									C263.163,226.15,262.802,226.03,262.431,226.03z"/>
								<path style="fill:#D85B6B;" d="M247.61,252.031c-1.092,0-2.049-0.803-2.209-1.913l-0.32-2.228
									c-0.085-0.587,0.066-1.174,0.425-1.652c0.358-0.478,0.879-0.788,1.467-0.872l17.625-2.529
									c0.588-0.083,1.176,0.066,1.654,0.424c0.479,0.358,0.789,0.879,0.873,1.466l0.321,2.229
									c0.175,1.217-0.674,2.349-1.893,2.525l-17.625,2.529C247.822,252.024,247.715,252.031,247.61,252.031z M264.916,243.313
									c-0.082,0-0.164,0.006-0.247,0.018l-17.625,2.529c-0.946,0.136-1.604,1.015-1.468,1.959l0.32,2.228
									c0.136,0.944,1.012,1.602,1.961,1.467l17.625-2.529c0.945-0.136,1.604-1.015,1.469-1.959l-0.321-2.229
									c-0.065-0.456-0.306-0.859-0.678-1.137C265.648,243.432,265.288,243.313,264.916,243.313z"/>
								<path style="fill:#D85B6B;" d="M250.095,269.314c-0.478,0-0.943-0.154-1.334-0.447c-0.479-0.358-0.789-0.879-0.873-1.466
									l-0.321-2.228c-0.175-1.217,0.674-2.35,1.893-2.524l17.625-2.529c1.219-0.167,2.352,0.673,2.527,1.89l0.32,2.228
									c0.085,0.587-0.066,1.174-0.425,1.652c-0.358,0.478-0.879,0.788-1.467,0.872l-17.625,2.529
									C250.308,269.306,250.201,269.314,250.095,269.314z M267.403,260.595c-0.081,0-0.164,0.006-0.247,0.018l-17.625,2.529
									c-0.946,0.136-1.604,1.014-1.469,1.959l0.321,2.228c0.066,0.456,0.306,0.859,0.678,1.138
									c0.372,0.278,0.827,0.397,1.283,0.329l17.625-2.529c0.456-0.065,0.86-0.306,1.139-0.677c0.278-0.371,0.396-0.827,0.33-1.282
									l-0.32-2.228C268.992,261.219,268.249,260.595,267.403,260.595z"/>
								<path style="fill:#D85B6B;" d="M265.38,375.591c-0.478,0-0.942-0.154-1.335-0.447c-0.478-0.358-0.789-0.878-0.873-1.466
									l-0.32-2.228c-0.084-0.587,0.066-1.174,0.425-1.652c0.358-0.478,0.879-0.788,1.467-0.872l17.625-2.529
									c0.587-0.082,1.176,0.066,1.654,0.424c0.479,0.358,0.789,0.879,0.873,1.466l0.32,2.228c0.175,1.217-0.674,2.35-1.892,2.525
									l-17.625,2.529C265.593,375.583,265.486,375.591,265.38,375.591z M282.688,366.873c-0.082,0-0.165,0.006-0.247,0.017
									l-17.625,2.529c-0.946,0.136-1.605,1.014-1.468,1.959l0.32,2.228c0.065,0.456,0.306,0.859,0.678,1.137
									c0.372,0.278,0.829,0.397,1.283,0.329l17.625-2.529c0.946-0.135,1.604-1.015,1.468-1.959l-0.32-2.228
									c-0.066-0.456-0.306-0.859-0.678-1.137C283.42,366.992,283.059,366.873,282.688,366.873z"/>
								<path style="fill:#D85B6B;" d="M295.712,371.227c-0.719,0-1.418-0.232-2.008-0.673c-0.72-0.539-1.187-1.322-1.314-2.206
									c-0.263-1.832,1.014-3.536,2.848-3.799l93.634-13.437c0.88-0.126,1.768,0.1,2.488,0.638c0.72,0.539,1.186,1.322,1.313,2.206
									c0.128,0.884-0.1,1.767-0.639,2.486c-0.539,0.719-1.323,1.186-2.209,1.313l-93.633,13.437
									C296.033,371.215,295.872,371.227,295.712,371.227z M389.351,351.578c-0.135,0-0.272,0.01-0.408,0.029l-93.633,13.437
									c-1.561,0.224-2.648,1.674-2.424,3.233c0.108,0.752,0.505,1.418,1.119,1.877c0.614,0.459,1.365,0.654,2.118,0.543
									l93.634-13.437c0.752-0.108,1.42-0.505,1.879-1.117c0.459-0.613,0.652-1.364,0.545-2.116
									c-0.108-0.752-0.506-1.418-1.119-1.877C390.559,351.775,389.963,351.578,389.351,351.578z"/>
								
									<rect x="353.98" y="140.987" transform="matrix(0.9898 -0.1427 0.1427 0.9898 -16.1244 57.6537)" style="fill:#DBB3A7;" width="79.772" height="0.5"/>
								
									<rect x="323.445" y="149.578" transform="matrix(0.9898 -0.1427 0.1427 0.9898 -17.9605 49.1884)" style="fill:#DBB3A7;" width="21.106" height="0.5"/>
								<polygon style="fill:#DBB3A7;" points="414.749,151.735 414.679,151.241 435.179,148.299 435.249,148.794 								"/>
								
									<rect x="325.027" y="158.576" transform="matrix(0.9898 -0.1427 0.1427 0.9898 -18.9447 53.5122)" style="fill:#DBB3A7;" width="77.105" height="0.5"/>
								<polygon style="fill:#DBB3A7;" points="387.3,168.917 387.229,168.423 437.045,161.274 437.115,161.769 								"/>
								
									<rect x="361.221" y="170.782" transform="matrix(0.9898 -0.1427 0.1427 0.9898 -20.6126 54.6684)" style="fill:#DBB3A7;" width="19.17" height="0.5"/>
								
									<rect x="327.149" y="175.126" transform="matrix(0.9898 -0.1427 0.1427 0.9898 -21.5367 50.3766)" style="fill:#DBB3A7;" width="26.776" height="0.5"/>
								<polygon style="fill:#DBB3A7;" points="401.128,180.176 401.058,179.682 438.911,174.249 438.981,174.744 								"/>
								
									<rect x="328.861" y="185.941" transform="matrix(0.9898 -0.1427 0.1427 0.9898 -22.9088 52.9075)" style="fill:#DBB3A7;" width="57.19" height="0.5"/>
								<polygon style="fill:#DBB3A7;" points="407.519,211.467 407.449,210.972 440.727,206.197 440.797,206.691 								"/>
								
									<rect x="343.411" y="216.54" transform="matrix(0.9898 -0.1427 0.1427 0.9898 -27.16 54.8204)" style="fill:#DBB3A7;" width="50.514" height="0.5"/>
								
									<rect x="274.05" y="226.637" transform="matrix(0.9898 -0.1427 0.1427 0.9898 -29.3284 44.8984)" style="fill:#DBB3A7;" width="48.512" height="0.5"/>
								<polygon style="fill:#DBB3A7;" points="384.986,232.34 384.916,231.845 443.212,223.479 443.282,223.974 								"/>
								
									<rect x="311.225" y="237.689" transform="matrix(0.9898 -0.1427 0.1427 0.9898 -30.4278 51.5472)" style="fill:#DBB3A7;" width="65.973" height="0.5"/>
								
									<rect x="276.659" y="245.643" transform="matrix(0.9898 -0.1427 0.1427 0.9898 -32.1355 43.7297)" style="fill:#DBB3A7;" width="24.256" height="0.5"/>
								<polygon style="fill:#DBB3A7;" points="427.992,243.807 427.922,243.313 445.698,240.762 445.769,241.257 								"/>
								
									<rect x="368.244" y="248.509" transform="matrix(0.9898 -0.1427 0.1427 0.9898 -31.4854 58.4384)" style="fill:#DBB3A7;" width="46.977" height="0.5"/>
								
									<rect x="278.865" y="259.008" transform="matrix(0.9898 -0.1427 0.1427 0.9898 -33.7321 48.1065)" style="fill:#DBB3A7;" width="79.405" height="0.5"/>
								
									<rect x="258.835" y="344.249" transform="matrix(0.9898 -0.1427 0.1427 0.9898 -45.7577 51.124)" style="fill:#DBB3A7;" width="149.253" height="0.5"/>
								<path style="fill:#457399;" d="M255.329,297.136c-1.787,0-3.354-1.315-3.615-3.131c-0.138-0.961,0.109-1.922,0.695-2.704
									c0.587-0.782,1.44-1.29,2.402-1.428l48.122-6.906c2-0.281,3.85,1.102,4.137,3.094c0.286,1.992-1.104,3.846-3.098,4.133
									l-48.122,6.906C255.675,297.124,255.501,297.136,255.329,297.136z M303.456,283.428c-0.149,0-0.3,0.011-0.451,0.033
									l-48.122,6.906c-0.831,0.119-1.567,0.556-2.073,1.232c-0.506,0.676-0.72,1.505-0.601,2.334
									c0.247,1.72,1.847,2.921,3.571,2.671l48.122-6.906c1.722-0.247,2.921-1.848,2.674-3.567
									C306.35,284.563,304.997,283.428,303.456,283.428z"/>
								<path style="fill:#457399;" d="M320.956,287.718c-0.783,0-1.544-0.253-2.185-0.732c-0.783-0.586-1.291-1.438-1.429-2.4
									c-0.138-0.961,0.108-1.922,0.695-2.704c0.586-0.782,1.439-1.29,2.402-1.428l85.993-12.34
									c1.991-0.287,3.849,1.102,4.136,3.094c0.139,0.961-0.108,1.922-0.694,2.704c-0.587,0.783-1.44,1.29-2.403,1.428
									l-85.991,12.34C321.304,287.705,321.129,287.718,320.956,287.718z M406.953,268.576c-0.148,0-0.299,0.011-0.451,0.033
									l-85.992,12.34c-0.83,0.119-1.566,0.557-2.073,1.233c-0.506,0.676-0.72,1.505-0.6,2.334c0.119,0.83,0.557,1.565,1.234,2.071
									c0.676,0.506,1.507,0.72,2.336,0.6l85.992-12.34c0.83-0.119,1.566-0.557,2.073-1.233c0.507-0.676,0.72-1.505,0.6-2.334
									C409.847,269.71,408.495,268.576,406.953,268.576z"/>
								<path style="fill:#457399;" d="M258.235,317.348c-0.783,0-1.544-0.253-2.185-0.732c-0.783-0.586-1.291-1.438-1.429-2.4
									c-0.286-1.992,1.103-3.846,3.097-4.132l73.566-10.557c1.991-0.284,3.85,1.102,4.137,3.094
									c0.138,0.961-0.109,1.922-0.695,2.705c-0.587,0.782-1.44,1.289-2.402,1.428l-73.566,10.557
									C258.582,317.336,258.408,317.348,258.235,317.348z M331.805,299.99c-0.149,0-0.299,0.01-0.45,0.032l-73.566,10.557
									c-1.721,0.247-2.92,1.846-2.673,3.566c0.119,0.83,0.557,1.565,1.234,2.071c0.677,0.506,1.508,0.719,2.336,0.6l73.566-10.557
									c0.83-0.119,1.567-0.556,2.073-1.232c0.506-0.676,0.72-1.505,0.601-2.334C334.7,301.124,333.347,299.99,331.805,299.99z"/>
								
									<rect x="256.957" y="324.192" transform="matrix(0.9898 -0.1427 0.1427 0.9898 -42.625 54.4936)" style="fill:#DBB3A7;" width="203.356" height="0.5"/>
							</g>
						</g>
					</g>
					
						<rect x="276.609" y="95.27" transform="matrix(0.9984 -0.0561 0.0561 0.9984 -14.2135 22.9087)" style="fill:#F9EFE8;" width="248.935" height="338.875"/>
					<g>
						<rect x="286.894" y="108.073" style="fill:#FFFFFF;" width="248.936" height="338.874"/>
						<g>
							<g>
								<rect x="309.682" y="130.036" style="fill:#F7E6DF;" width="202.522" height="27.883"/>
								<g>
									<path style="fill:#4B284C;" d="M409.572,151.515c-0.632,0.291-2.162,0.679-4.13,0.679c-6.121,0-8.817-3.834-8.817-8.177
										c0-5.775,4.227-8.711,9.109-8.711c1.895,0,3.425,0.364,4.105,0.728l-0.85,3.445c-0.729-0.291-1.725-0.582-3.036-0.582
										c-2.526,0-4.713,1.48-4.713,4.829c0,2.985,1.773,4.829,4.785,4.829c1.069,0,2.26-0.218,2.939-0.485L409.572,151.515z"/>
									<path style="fill:#4B284C;" d="M416.11,151.927l-5.199-16.354h4.811l1.725,6.43c0.534,1.82,0.972,3.615,1.36,5.727h0.049
										c0.413-2.014,0.874-3.907,1.36-5.654l1.773-6.503h4.664l-5.369,16.354H416.11z"/>
								</g>
							</g>
							<g>
								<rect x="309.973" y="170.348" style="fill:#F7E6DF;" width="68.425" height="78.123"/>
								<g>
									<rect x="333.454" y="212.525" style="fill:#FFB9A9;" width="20.57" height="35.947"/>
									<path style="fill:#F28E81;" d="M354.023,221.296c-8.707,1.69-15.927,0.846-20.569-4.385l0-4.386h20.569V221.296z"/>
									<path style="fill:#FFFFFF;" d="M313.377,248.471h62.003l1.29-14.262c0.352-4.241-2.103-6.581-6.503-7.476l-15.979-2.361
										c-5.196,3.676-15.084,3.844-20.9,0l-14.699,2.361c-4.4,0.895-6.854,3.235-6.503,7.476L313.377,248.471z"/>
									<path style="fill:#FFFFFF;" d="M309.973,248.471h11.152l-1.89-21.879c-3.935,0.864-7.001,2.049-9.262,4.032V248.471z"/>
									<path style="fill:#FFFFFF;" d="M378.374,230.408c-2.32-2.003-5.384-3.2-9.039-3.815l-1.89,21.879h10.928V230.408z"/>
									<polygon style="fill:#D85B6B;" points="340.74,248.471 346.737,248.471 346.065,232.36 348.955,229.117 346.454,227.082 
										343.738,227.189 341.022,227.082 338.521,229.117 341.412,232.36 									"/>
									<polygon style="fill:#FFFFFF;" points="333.454,219.641 329.985,224.903 337.958,232.033 341.57,227.082 									"/>
									<polygon style="fill:#FFFFFF;" points="353.943,219.641 357.411,224.903 349.439,232.033 345.826,227.082 									"/>
									<g>
										<path style="fill:#FFB9A9;" d="M344.339,220.157h-1.202c-7.456,0-13.556-6.1-13.556-13.556v-12.463
											c0-7.456,6.1-13.556,13.556-13.556h1.202c7.456,0,13.556,6.1,13.556,13.556v12.463
											C357.895,214.057,351.795,220.157,344.339,220.157z"/>
										<g>
											<path style="fill:#FFB9A9;" d="M330.992,201.403c0,0-1.793-4.481-4.666-2.437c-2.872,2.044,0.011,9.132,3.895,9.825
												C334.105,209.484,330.992,201.403,330.992,201.403z"/>
											<path style="fill:#FFB9A9;" d="M356.485,201.403c0,0,1.793-4.481,4.666-2.437c2.872,2.044-0.011,9.132-3.895,9.825
												C353.371,209.484,356.485,201.403,356.485,201.403z"/>
											<path style="fill:#E07C68;" d="M327.595,205.029c-0.713-1.044-1.434-3.092-0.716-4.171
												c0.258-0.388,0.815-0.8,2.002-0.558l-0.1,0.49c-0.735-0.151-1.234-0.034-1.485,0.345
												c-0.511,0.767-0.034,2.519,0.712,3.612L327.595,205.029z"/>
											<path style="fill:#E07C68;" d="M360.172,205.029l-0.413-0.282c0.747-1.093,1.223-2.845,0.712-3.612
												c-0.251-0.378-0.751-0.495-1.485-0.345l-0.1-0.49c1.188-0.241,1.744,0.17,2.001,0.558
												C361.606,201.937,360.886,203.985,360.172,205.029z"/>
										</g>
										<g>
											<path style="fill:#E07C68;" d="M343.806,206.441l-0.141-0.479c0.56-0.164,2.146-0.794,2.091-1.504
												c-0.063-0.835-1.788-4.015-2.447-5.169l0.435-0.248c0.248,0.435,2.428,4.281,2.512,5.379
												C346.351,205.659,344.067,206.365,343.806,206.441z"/>
											<g>
												<path style="fill:#4B284C;" d="M338.289,203.211c-0.002,0.472-0.381,0.854-0.847,0.852
													c-0.466-0.002-0.843-0.386-0.841-0.859c0.002-0.472,0.381-0.854,0.847-0.852
													C337.914,202.355,338.291,202.739,338.289,203.211z"/>
												<path style="fill:#F99819;" d="M335.352,201.247l-0.333-0.941c1.688-0.597,3.12-0.584,4.375,0.038l-0.444,0.895
													C337.95,200.744,336.774,200.746,335.352,201.247z"/>
											</g>
											<g>
												<path style="fill:#4B284C;" d="M351.158,203.26c-0.002,0.465-0.375,0.84-0.834,0.839
													c-0.459-0.002-0.829-0.38-0.827-0.845c0.002-0.465,0.375-0.84,0.834-0.839
													C350.789,202.417,351.16,202.795,351.158,203.26z"/>
												<path style="fill:#F99819;" d="M348.471,201.297l-0.333-0.941c1.688-0.597,3.12-0.585,4.375,0.039l-0.444,0.895
													C351.067,200.793,349.891,200.797,348.471,201.297z"/>
											</g>
											<path style="fill:#E07C68;" d="M344.369,211.45c-1.25,0-2.541-0.333-3.864-0.999l0.225-0.446
												c2.51,1.263,4.79,1.272,6.972,0.033l0.247,0.434C346.801,211.124,345.605,211.45,344.369,211.45z"/>
											<rect x="343.971" y="214.046" style="fill:#E07C68;" width="0.5" height="1.518"/>
										</g>
										<path style="fill:#F99819;" d="M330.065,205.569c0.222-2.826,0.519-6.686-1.945-7.137l-0.704-4.769
											c-0.528-2.169,0.305-3.567,1.178-3.931c0,0-4.311-3.859-2.22-7.85c2.091-3.991,6.887-2.135,6.887-2.135
											s-0.259-3.153,4.019-4.204c4.278-1.051,17.372,6.831,17.372,6.831c3.176,1.872,3.979,4.333,4.473,7.357
											c1.499,0.27,1.618,2.458,1.484,3.48l-0.584,5.219c-2.853-0.188-2.974,2.987-2.807,7.137c-1.913,0-1.596-5.899-1.596-5.899
											l0.012-8.756h-23.234l-0.34,8.784C332.059,199.698,332.173,205.569,330.065,205.569z"/>
									</g>
									<polygon style="fill:#EDCBC3;" points="337.997,232.403 329.818,225.089 330.152,224.717 337.918,231.662 339.044,230.119 
										339.448,230.414 									"/>
									<polygon style="fill:#EDCBC3;" points="349.398,232.4 347.849,230.278 348.253,229.984 349.48,231.665 357.427,224.715 
										357.756,225.091 									"/>
								</g>
								<path style="fill:#F7E6DF;" d="M378.648,248.721h-68.926v-78.622h68.926V248.721z M310.223,248.221h67.926v-77.623h-67.926
									V248.221z"/>
							</g>
							<g>
								<path style="fill:#457399;" d="M509.642,177.263H404.1c-1.853,0-3.359-1.505-3.359-3.355c0-1.851,1.507-3.356,3.359-3.356
									h105.542c1.853,0,3.359,1.505,3.359,3.356C513.001,175.758,511.494,177.263,509.642,177.263z M404.1,171.052
									c-1.576,0-2.859,1.281-2.859,2.856c0,1.574,1.283,2.856,2.859,2.856h105.542c1.577,0,2.859-1.281,2.859-2.856
									c0-1.575-1.282-2.856-2.859-2.856H404.1z"/>
								<path style="fill:#457399;" d="M451.435,190.491H404.1c-1.853,0-3.359-1.505-3.359-3.356c0-1.85,1.507-3.356,3.359-3.356
									h47.335c1.853,0,3.359,1.505,3.359,3.356C454.794,188.986,453.287,190.491,451.435,190.491z M404.1,184.279
									c-1.577,0-2.859,1.281-2.859,2.856s1.282,2.856,2.859,2.856h47.335c1.577,0,2.859-1.281,2.859-2.856
									s-1.282-2.856-2.859-2.856H404.1z"/>
								<path style="fill:#D85B6B;" d="M329.899,280.865h-17.806c-1.231,0-2.233-1-2.233-2.23v-2.251c0-1.229,1.001-2.23,2.233-2.23
									h17.806c1.231,0,2.232,1,2.232,2.23v2.251C332.131,279.865,331.13,280.865,329.899,280.865z M312.093,274.654
									c-0.955,0-1.733,0.776-1.733,1.73v2.251c0,0.954,0.777,1.73,1.733,1.73h17.806c0.955,0,1.732-0.777,1.732-1.73v-2.251
									c0-0.954-0.777-1.73-1.732-1.73H312.093z"/>
								<path style="fill:#D85B6B;" d="M329.899,298.326h-17.806c-1.231,0-2.233-1-2.233-2.23v-2.251c0-1.23,1.001-2.23,2.233-2.23
									h17.806c1.231,0,2.232,1,2.232,2.23v2.251C332.131,297.326,331.13,298.326,329.899,298.326z M312.093,292.114
									c-0.955,0-1.733,0.777-1.733,1.73v2.251c0,0.954,0.777,1.731,1.733,1.731h17.806c0.955,0,1.732-0.776,1.732-1.731v-2.251
									c0-0.954-0.777-1.73-1.732-1.73H312.093z"/>
								<path style="fill:#D85B6B;" d="M329.899,315.786h-17.806c-1.231,0-2.233-1-2.233-2.23v-2.251c0-1.23,1.001-2.23,2.233-2.23
									h17.806c1.231,0,2.232,1,2.232,2.23v2.251C332.131,314.785,331.13,315.786,329.899,315.786z M312.093,309.574
									c-0.955,0-1.733,0.777-1.733,1.73v2.251c0,0.954,0.777,1.73,1.733,1.73h17.806c0.955,0,1.732-0.776,1.732-1.73v-2.251
									c0-0.954-0.777-1.73-1.732-1.73H312.093z"/>
								<path style="fill:#D85B6B;" d="M329.899,423.154h-17.806c-1.231,0-2.233-1-2.233-2.23v-2.251c0-1.229,1.001-2.23,2.233-2.23
									h17.806c1.231,0,2.232,1,2.232,2.23v2.251C332.131,422.154,331.13,423.154,329.899,423.154z M312.093,416.943
									c-0.955,0-1.733,0.776-1.733,1.73v2.251c0,0.954,0.777,1.731,1.733,1.731h17.806c0.955,0,1.732-0.777,1.732-1.731v-2.251
									c0-0.954-0.777-1.73-1.732-1.73H312.093z"/>
								<path style="fill:#D85B6B;" d="M437.494,423.154h-94.595c-1.853,0-3.359-1.505-3.359-3.356c0-1.85,1.507-3.356,3.359-3.356
									h94.595c1.853,0,3.359,1.505,3.359,3.356C440.853,421.649,439.347,423.154,437.494,423.154z M342.899,416.943
									c-1.577,0-2.859,1.281-2.859,2.856c0,1.575,1.283,2.856,2.859,2.856h94.595c1.576,0,2.859-1.281,2.859-2.856
									c0-1.575-1.283-2.856-2.859-2.856H342.899z"/>
								<rect x="432.431" y="209.16" style="fill:#DBB3A7;" width="79.773" height="0.499"/>
								<rect x="401.281" y="209.16" style="fill:#DBB3A7;" width="21.106" height="0.499"/>
								<rect x="491.494" y="222.269" style="fill:#DBB3A7;" width="20.71" height="0.499"/>
								<rect x="401.281" y="222.269" style="fill:#DBB3A7;" width="77.106" height="0.499"/>
								<rect x="461.877" y="235.377" style="fill:#DBB3A7;" width="50.327" height="0.499"/>
								<rect x="435.664" y="235.377" style="fill:#DBB3A7;" width="19.171" height="0.499"/>
								<rect x="401.281" y="235.377" style="fill:#DBB3A7;" width="26.777" height="0.499"/>
								<rect x="473.962" y="248.485" style="fill:#DBB3A7;" width="38.242" height="0.499"/>
								<rect x="401.281" y="248.485" style="fill:#DBB3A7;" width="57.191" height="0.499"/>
								<rect x="475.835" y="280.366" style="fill:#DBB3A7;" width="33.618" height="0.499"/>
								<rect x="411.362" y="280.366" style="fill:#DBB3A7;" width="50.515" height="0.499"/>
								<rect x="341.279" y="280.366" style="fill:#DBB3A7;" width="48.513" height="0.499"/>
								<rect x="450.558" y="297.826" style="fill:#DBB3A7;" width="58.896" height="0.499"/>
								<rect x="376.413" y="297.826" style="fill:#DBB3A7;" width="65.975" height="0.499"/>
								<rect x="341.279" y="297.826" style="fill:#DBB3A7;" width="24.257" height="0.499"/>
								<rect x="491.494" y="315.286" style="fill:#DBB3A7;" width="17.959" height="0.499"/>
								<rect x="431.409" y="315.286" style="fill:#DBB3A7;" width="46.979" height="0.499"/>
								<rect x="341.279" y="315.286" style="fill:#DBB3A7;" width="79.407" height="0.499"/>
								<rect x="308.96" y="401.776" style="fill:#DBB3A7;" width="149.257" height="0.499"/>
								<path style="fill:#457399;" d="M362.131,344.083h-48.616c-2.015,0-3.654-1.637-3.654-3.65c0-2.013,1.639-3.65,3.654-3.65
									h48.616c2.015,0,3.654,1.637,3.654,3.65C365.786,342.445,364.146,344.083,362.131,344.083z M313.515,337.282
									c-1.739,0-3.154,1.413-3.154,3.15c0,1.737,1.415,3.151,3.154,3.151h48.616c1.739,0,3.154-1.413,3.154-3.15
									s-1.415-3.151-3.154-3.151H313.515z"/>
								<path style="fill:#457399;" d="M466.691,344.083h-86.874c-2.015,0-3.654-1.637-3.654-3.65c0-2.013,1.64-3.65,3.654-3.65
									h86.874c2.015,0,3.654,1.637,3.654,3.65C470.346,342.445,468.706,344.083,466.691,344.083z M379.817,337.282
									c-1.739,0-3.154,1.413-3.154,3.15c0,1.737,1.415,3.151,3.154,3.151h86.874c1.739,0,3.154-1.413,3.154-3.15
									c0-1.737-1.415-3.151-3.154-3.151H379.817z"/>
								<path style="fill:#457399;" d="M387.836,364.503h-74.321c-2.015,0-3.654-1.637-3.654-3.65s1.639-3.65,3.654-3.65h74.321
									c2.015,0,3.654,1.637,3.654,3.65S389.851,364.503,387.836,364.503z M313.515,357.701c-1.739,0-3.154,1.414-3.154,3.151
									s1.415,3.151,3.154,3.151h74.321c1.739,0,3.154-1.413,3.154-3.151s-1.415-3.151-3.154-3.151H313.515z"/>
								<rect x="309.682" y="385.499" style="fill:#DBB3A7;" width="203.36" height="0.499"/>
							</g>
						</g>
					</g>
					<g>
						<path style="fill:#FFB9A9;" d="M256.211,434.404l-65.612-36.455c0,0,18.41-27.922,19.104-50.309
							c0.957-11.436-9.184-73.345-4.936-82.49c4.248-9.144,54.382-40.003,59.261-41.971c4.879-1.967,9.861-2.276,9.861-2.276
							l2.712,43.682l33.113-33.505c17.059-18.356,37.402-1.716,18.777,19.004c0,0-26.677,29.776-30.21,38.506
							c-3.533,8.73-4.428,24.142-5.955,32.378c-1.526,8.236-11.004,26.99-11.004,26.99l1.626,32.669
							C276.576,406.278,263.508,404.256,256.211,434.404z"/>
						<path style="fill:#E27D69;" d="M258.207,278.589c-8.588,0-24.909-13.452-25.634-14.054l0.319-0.384
							c0.186,0.154,18.614,15.334,26.495,13.835c7.912-1.507,16.923-13.429,17.013-13.549l0.4,0.299
							c-0.373,0.497-9.217,12.197-17.32,13.74C259.08,278.553,258.653,278.589,258.207,278.589z"/>
						<path style="fill:#E27D69;" d="M267.771,273.975c-6.23-1.45-8.61-9.762-8.794-10.436
							c-3.366-5.927-11.737-10.192-11.821-10.234l0.225-0.446c0.086,0.043,8.616,4.388,12.048,10.461l0.024,0.059
							c0.023,0.087,2.37,8.699,8.432,10.109L267.771,273.975z"/>
						<polygon style="fill:#E27D69;" points="259.513,262.884 259.186,262.505 275.454,248.546 275.78,248.924 						"/>
						<path style="fill:#E27D69;" d="M258.903,278.543c-5.725-0.73-12.134-8.83-12.404-9.175l0.394-0.308
							c0.065,0.083,6.553,8.284,12.074,8.988L258.903,278.543z"/>
						
							<rect x="263.035" y="357.482" transform="matrix(0.5614 -0.8276 0.8276 0.5614 -175.5299 384.2914)" style="fill:#E27D69;" width="23.443" height="0.5"/>
						<polygon style="fill:#E27D69;" points="312.349,258.39 300.723,248.656 301.044,248.274 312.67,258.007 						"/>
						
							<rect x="308.486" y="246.951" transform="matrix(0.67 -0.7424 0.7424 0.67 -84.1303 311.8777)" style="fill:#E27D69;" width="0.5" height="7.236"/>
						
							<rect x="303.64" y="252.432" transform="matrix(0.67 -0.7424 0.7424 0.67 -89.7955 310.1089)" style="fill:#E27D69;" width="0.5" height="7.236"/>
						<path style="fill:#E27D69;" d="M324.841,245.005c-3.543,0-10.023-5.939-11.46-9.256c-1.467-3.386,7.842-10.318,8.239-10.611
							l0.298,0.402c-2.616,1.933-9.166,7.501-8.078,10.011c1.379,3.183,7.909,9.152,11.156,8.95c3.248-0.201,8.983-9.155,9.04-9.245
							l0.422,0.268c-0.241,0.378-5.931,9.259-9.431,9.476C324.965,245.003,324.903,245.005,324.841,245.005z"/>
						
							<rect x="185.974" y="387.499" transform="matrix(0.8762 0.482 -0.482 0.8762 223.6159 -58.9182)" style="fill:#FFFFFF;" width="80.989" height="36.439"/>
						<polygon style="fill:#4B284C;" points="229.052,500 256.301,440.131 181.406,398.927 108.646,500 						"/>
						<path style="fill:#DBB3A7;" d="M250.516,423.866c-1.593,0-3.092-0.618-4.221-1.741c-1.133-1.127-1.759-2.626-1.762-4.223
							c-0.007-3.296,2.671-5.983,5.971-5.991c0.004,0,0.009,0,0.013,0c3.294,0,5.977,2.673,5.984,5.965l0,0
							c0.004,1.596-0.615,3.099-1.743,4.231s-2.629,1.757-4.228,1.76C250.526,423.866,250.521,423.866,250.516,423.866z
							 M250.517,412.411c-0.004,0-0.008,0-0.012,0c-1.465,0.003-2.841,0.576-3.874,1.613c-1.033,1.037-1.601,2.414-1.598,3.878
							s0.577,2.838,1.615,3.87c1.035,1.03,2.409,1.596,3.869,1.596c0.004,0,0.009,0,0.013,0c1.465-0.003,2.841-0.576,3.874-1.613
							c1.034-1.037,1.601-2.414,1.598-3.878l0,0c-0.003-1.463-0.577-2.838-1.615-3.87
							C253.352,412.977,251.977,412.411,250.517,412.411z"/>
						<path style="fill:#E27D69;" d="M274.163,229.785c-2.357-3.179-4.515-4.092-4.537-4.1l0.189-0.462
							c0.093,0.038,2.3,0.963,4.749,4.265L274.163,229.785z"/>
					</g>
				</g>
				<g>
					<path style="fill:#FFB9A9;" d="M566.296,478.781l63.292-40.295c0,0-20.062-26.732-22.106-49.011
						c-1.646-11.345,4.74-73.682-0.052-82.544c-4.792-8.862-56.698-36.613-61.687-38.282s-9.981-1.676-9.981-1.676l-0.07,43.717
						l-35.076-31.414c-18.136-17.276-37.438,0.54-17.595,20.078c0,0,28.425,28.083,32.479,36.575
						c4.054,8.492,5.878,23.805,7.898,31.924c2.021,8.12,12.613,26.248,12.613,26.248l-0.001,31.618
						C543.92,450.911,557.192,449.161,566.296,478.781z"/>
					<path style="fill:#E27D69;" d="M554.434,323.56c-0.281,0-0.552-0.017-0.815-0.05c-8.181-1.051-17.715-12.184-18.116-12.658
						l0.381-0.323c0.098,0.115,9.811,11.459,17.8,12.486c7.948,1.014,25.436-15.224,25.612-15.388l0.342,0.363
						C578.937,308.646,562.9,323.56,554.434,323.56z"/>
					<path style="fill:#E27D69;" d="M545.072,319.52l-0.143-0.478c5.966-1.771,7.789-10.498,7.807-10.586l0.02-0.06
						c3.059-6.262,11.311-11.108,11.394-11.156l0.252,0.431c-0.082,0.048-8.18,4.804-11.183,10.915
						C553.078,309.27,551.204,317.7,545.072,319.52z"/>
					<polygon style="fill:#E27D69;" points="552.646,307.965 535.566,295.025 535.869,294.628 552.949,307.568 					"/>
					<path style="fill:#E27D69;" d="M554.2,323.541l-0.094-0.49c5.469-1.033,11.45-9.6,11.51-9.687l0.412,0.284
						C565.779,314.007,559.87,322.469,554.2,323.541z"/>
					<polygon style="fill:#E27D69;" points="550.12,412.872 535.795,394.334 536.191,394.029 550.517,412.567 					"/>
					<polygon style="fill:#E27D69;" points="499.635,306.663 499.291,306.301 510.308,295.897 510.651,296.259 					"/>
					<polygon style="fill:#E27D69;" points="500.413,301.401 500.056,301.051 505.125,295.895 505.482,296.244 					"/>
					<polygon style="fill:#E27D69;" points="505.581,306.574 505.224,306.224 510.293,301.068 510.65,301.417 					"/>
					<path style="fill:#E27D69;" d="M486.177,294.074c-0.001,0-0.003,0-0.004,0c-3.509-0.005-9.724-8.518-9.986-8.88l0.404-0.292
						c0.064,0.087,6.327,8.669,9.582,8.674c0.002,0,0.003,0,0.004,0c3.269,0,9.407-6.339,10.591-9.595
						c0.934-2.569-5.94-7.726-8.667-9.496l0.273-0.418c0.414,0.268,10.124,6.619,8.864,10.085
						C495.982,287.604,489.682,294.074,486.177,294.074z"/>
					<polygon style="fill:#FFFFFF;" points="569.761,485.366 638.234,442.173 618.745,411.415 550.271,454.608 					"/>
					<polygon style="fill:#4B284C;" points="688.718,500 638.823,438.908 566.552,484.496 574.781,500 					"/>
					<path style="fill:#DBB3A7;" d="M570.975,467.943c-1.468,0-2.865-0.53-3.971-1.511c-1.194-1.06-1.903-2.521-1.996-4.113
						c-0.093-1.592,0.441-3.125,1.504-4.316c1.063-1.191,2.527-1.898,4.123-1.991c1.604-0.092,3.132,0.44,4.326,1.501
						c1.194,1.06,1.903,2.521,1.996,4.113c0.093,1.592-0.441,3.125-1.504,4.317c-1.063,1.191-2.527,1.898-4.123,1.991
						C571.211,467.939,571.093,467.943,570.975,467.943z M570.99,456.5c-0.108,0-0.217,0.003-0.326,0.009
						c-1.463,0.085-2.805,0.733-3.778,1.825c-0.975,1.092-1.464,2.496-1.378,3.955l0,0c0.085,1.46,0.734,2.798,1.828,3.77
						c1.095,0.972,2.501,1.46,3.965,1.375c1.463-0.085,2.805-0.733,3.778-1.825c0.975-1.092,1.464-2.497,1.378-3.956
						c-0.085-1.46-0.734-2.798-1.828-3.77C573.616,456.985,572.334,456.5,570.99,456.5z"/>
					<path style="fill:#E27D69;" d="M536.025,275.844l-0.42-0.272c2.245-3.44,4.392-4.496,4.482-4.539l0.217,0.45
						C540.284,271.493,538.185,272.533,536.025,275.844z"/>
				</g>
			</g>
		</g>
	</g>
</g>
</svg>
